<mxfile host="app.diagrams.net" modified="2022-07-12T21:45:10.514Z" agent="5.0 (Windows NT 10.0; Win64; x64) AppleWebKit/537.36 (KHTML, like Gecko) Chrome/103.0.0.0 Safari/537.36" etag="CeoGBK3-gwh59ReKst8o" version="20.0.4" type="github" pages="13">
  <diagram id="j-XA8UHWb0GREC0O_p5o" name="diagrama de componentes">
    <mxGraphModel dx="1422" dy="794" grid="1" gridSize="10" guides="1" tooltips="1" connect="1" arrows="1" fold="1" page="1" pageScale="1" pageWidth="827" pageHeight="1169" math="0" shadow="0">
      <root>
        <mxCell id="0" />
        <mxCell id="1" parent="0" />
        <mxCell id="VCm055K0KpFPzWmwgE2d-1" value="" style="ellipse;shape=cloud;whiteSpace=wrap;html=1;fillColor=#fff2cc;strokeColor=#d6b656;" parent="1" vertex="1">
          <mxGeometry x="370" y="230" width="120" height="80" as="geometry" />
        </mxCell>
      </root>
    </mxGraphModel>
  </diagram>
  <diagram id="0FJG1oKvQnxuFDeffio4" name="Diagrama de Flujo de Historia Clinica">
    <mxGraphModel dx="1422" dy="794" grid="1" gridSize="10" guides="1" tooltips="1" connect="1" arrows="1" fold="1" page="1" pageScale="1" pageWidth="827" pageHeight="1169" math="0" shadow="0">
      <root>
        <mxCell id="0" />
        <mxCell id="1" parent="0" />
        <mxCell id="RMnhrKZfnsFbdMeV7oKZ-1" value="Inicio" style="ellipse;whiteSpace=wrap;html=1;aspect=fixed;fillColor=#d5e8d4;strokeColor=#82b366;" parent="1" vertex="1">
          <mxGeometry x="40" y="50" width="60" height="60" as="geometry" />
        </mxCell>
        <mxCell id="RMnhrKZfnsFbdMeV7oKZ-2" value="Admisión" style="rounded=1;whiteSpace=wrap;html=1;fillColor=#fff2cc;strokeColor=#d6b656;" parent="1" vertex="1">
          <mxGeometry x="160" y="50" width="120" height="60" as="geometry" />
        </mxCell>
        <mxCell id="RMnhrKZfnsFbdMeV7oKZ-3" value="" style="endArrow=classic;html=1;rounded=0;entryX=0;entryY=0.5;entryDx=0;entryDy=0;" parent="1" source="RMnhrKZfnsFbdMeV7oKZ-1" target="RMnhrKZfnsFbdMeV7oKZ-2" edge="1">
          <mxGeometry width="50" height="50" relative="1" as="geometry">
            <mxPoint x="390" y="430" as="sourcePoint" />
            <mxPoint x="440" y="380" as="targetPoint" />
          </mxGeometry>
        </mxCell>
        <mxCell id="RMnhrKZfnsFbdMeV7oKZ-6" value="Toma de Signos Vitales" style="rounded=1;whiteSpace=wrap;html=1;fillColor=#fff2cc;strokeColor=#d6b656;" parent="1" vertex="1">
          <mxGeometry x="330" y="50" width="120" height="60" as="geometry" />
        </mxCell>
        <mxCell id="RMnhrKZfnsFbdMeV7oKZ-7" value="" style="endArrow=classic;html=1;rounded=0;exitX=1;exitY=0.5;exitDx=0;exitDy=0;" parent="1" source="RMnhrKZfnsFbdMeV7oKZ-2" target="RMnhrKZfnsFbdMeV7oKZ-6" edge="1">
          <mxGeometry width="50" height="50" relative="1" as="geometry">
            <mxPoint x="390" y="420" as="sourcePoint" />
            <mxPoint x="440" y="370" as="targetPoint" />
          </mxGeometry>
        </mxCell>
        <mxCell id="RMnhrKZfnsFbdMeV7oKZ-8" value="Ingreso al Modulo de consultas" style="rounded=1;whiteSpace=wrap;html=1;fillColor=#fff2cc;strokeColor=#d6b656;" parent="1" vertex="1">
          <mxGeometry x="510" y="50" width="120" height="60" as="geometry" />
        </mxCell>
        <mxCell id="RMnhrKZfnsFbdMeV7oKZ-9" value="" style="endArrow=classic;html=1;rounded=0;exitX=1;exitY=0.5;exitDx=0;exitDy=0;" parent="1" source="RMnhrKZfnsFbdMeV7oKZ-6" target="RMnhrKZfnsFbdMeV7oKZ-8" edge="1">
          <mxGeometry width="50" height="50" relative="1" as="geometry">
            <mxPoint x="390" y="420" as="sourcePoint" />
            <mxPoint x="440" y="370" as="targetPoint" />
          </mxGeometry>
        </mxCell>
        <mxCell id="RMnhrKZfnsFbdMeV7oKZ-10" value="¿El Paciente ya cuenta con Historia Clínica?" style="rhombus;whiteSpace=wrap;html=1;fillColor=#fff2cc;strokeColor=#d6b656;" parent="1" vertex="1">
          <mxGeometry x="510" y="170" width="120" height="120" as="geometry" />
        </mxCell>
        <mxCell id="RMnhrKZfnsFbdMeV7oKZ-11" value="" style="endArrow=classic;html=1;rounded=0;" parent="1" source="RMnhrKZfnsFbdMeV7oKZ-8" target="RMnhrKZfnsFbdMeV7oKZ-10" edge="1">
          <mxGeometry width="50" height="50" relative="1" as="geometry">
            <mxPoint x="390" y="400" as="sourcePoint" />
            <mxPoint x="440" y="350" as="targetPoint" />
          </mxGeometry>
        </mxCell>
        <mxCell id="RMnhrKZfnsFbdMeV7oKZ-12" value="Si" style="text;html=1;strokeColor=none;fillColor=none;align=center;verticalAlign=middle;whiteSpace=wrap;rounded=0;" parent="1" vertex="1">
          <mxGeometry x="448" y="204" width="60" height="30" as="geometry" />
        </mxCell>
        <mxCell id="RMnhrKZfnsFbdMeV7oKZ-13" value="No" style="text;html=1;strokeColor=none;fillColor=none;align=center;verticalAlign=middle;whiteSpace=wrap;rounded=0;" parent="1" vertex="1">
          <mxGeometry x="620" y="203" width="60" height="30" as="geometry" />
        </mxCell>
        <mxCell id="RMnhrKZfnsFbdMeV7oKZ-14" value="" style="endArrow=classic;html=1;rounded=0;exitX=0;exitY=0.5;exitDx=0;exitDy=0;" parent="1" source="RMnhrKZfnsFbdMeV7oKZ-10" target="HL4wUpQa_9BszUXqO1d3-1" edge="1">
          <mxGeometry width="50" height="50" relative="1" as="geometry">
            <mxPoint x="390" y="400" as="sourcePoint" />
            <mxPoint x="610" y="340" as="targetPoint" />
          </mxGeometry>
        </mxCell>
        <mxCell id="RMnhrKZfnsFbdMeV7oKZ-16" value="Crear Historia Clinica" style="rounded=1;whiteSpace=wrap;html=1;fillColor=#fff2cc;strokeColor=#d6b656;" parent="1" vertex="1">
          <mxGeometry x="690" y="200" width="120" height="60" as="geometry" />
        </mxCell>
        <mxCell id="RMnhrKZfnsFbdMeV7oKZ-17" value="" style="endArrow=classic;html=1;rounded=0;exitX=1;exitY=0.5;exitDx=0;exitDy=0;" parent="1" source="RMnhrKZfnsFbdMeV7oKZ-10" target="RMnhrKZfnsFbdMeV7oKZ-16" edge="1">
          <mxGeometry width="50" height="50" relative="1" as="geometry">
            <mxPoint x="390" y="400" as="sourcePoint" />
            <mxPoint x="440" y="350" as="targetPoint" />
          </mxGeometry>
        </mxCell>
        <mxCell id="RMnhrKZfnsFbdMeV7oKZ-18" value="Consultar Historia Clinica" style="rounded=1;whiteSpace=wrap;html=1;fillColor=#fff2cc;strokeColor=#d6b656;" parent="1" vertex="1">
          <mxGeometry x="312" y="481" width="120" height="60" as="geometry" />
        </mxCell>
        <mxCell id="RMnhrKZfnsFbdMeV7oKZ-19" value="" style="endArrow=classic;html=1;rounded=0;" parent="1" source="RMnhrKZfnsFbdMeV7oKZ-16" target="RMnhrKZfnsFbdMeV7oKZ-18" edge="1">
          <mxGeometry width="50" height="50" relative="1" as="geometry">
            <mxPoint x="390" y="390" as="sourcePoint" />
            <mxPoint x="440" y="340" as="targetPoint" />
            <Array as="points">
              <mxPoint x="750" y="380" />
              <mxPoint x="750" y="477" />
              <mxPoint x="750" y="511" />
            </Array>
          </mxGeometry>
        </mxCell>
        <mxCell id="RMnhrKZfnsFbdMeV7oKZ-24" value="Alta del Paciente" style="rounded=1;whiteSpace=wrap;html=1;fillColor=#fff2cc;strokeColor=#d6b656;" parent="1" vertex="1">
          <mxGeometry x="120" y="604" width="120" height="60" as="geometry" />
        </mxCell>
        <mxCell id="RMnhrKZfnsFbdMeV7oKZ-25" value="" style="endArrow=classic;html=1;rounded=0;" parent="1" source="RMnhrKZfnsFbdMeV7oKZ-18" target="xekQoF_mFTuRHG7IAeSE-1" edge="1">
          <mxGeometry width="50" height="50" relative="1" as="geometry">
            <mxPoint x="162" y="621" as="sourcePoint" />
            <mxPoint x="280" y="540" as="targetPoint" />
          </mxGeometry>
        </mxCell>
        <mxCell id="RMnhrKZfnsFbdMeV7oKZ-26" value="Fin" style="ellipse;whiteSpace=wrap;html=1;aspect=fixed;fillColor=#f8cecc;strokeColor=#b85450;" parent="1" vertex="1">
          <mxGeometry x="150" y="724" width="60" height="60" as="geometry" />
        </mxCell>
        <mxCell id="RMnhrKZfnsFbdMeV7oKZ-27" value="" style="endArrow=classic;html=1;rounded=0;exitX=0.5;exitY=1;exitDx=0;exitDy=0;" parent="1" source="RMnhrKZfnsFbdMeV7oKZ-24" target="RMnhrKZfnsFbdMeV7oKZ-26" edge="1">
          <mxGeometry width="50" height="50" relative="1" as="geometry">
            <mxPoint x="130" y="744" as="sourcePoint" />
            <mxPoint x="180" y="694" as="targetPoint" />
          </mxGeometry>
        </mxCell>
        <mxCell id="HL4wUpQa_9BszUXqO1d3-1" value="¿Requiere actualizar Historia Clínica?" style="rhombus;whiteSpace=wrap;html=1;fillColor=#fff2cc;strokeColor=#d6b656;" parent="1" vertex="1">
          <mxGeometry x="300" y="165" width="140" height="130" as="geometry" />
        </mxCell>
        <mxCell id="HL4wUpQa_9BszUXqO1d3-2" value="Actualizar Historia Clinica" style="rounded=1;whiteSpace=wrap;html=1;fillColor=#fff2cc;strokeColor=#d6b656;" parent="1" vertex="1">
          <mxGeometry x="210" y="310" width="120" height="60" as="geometry" />
        </mxCell>
        <mxCell id="HL4wUpQa_9BszUXqO1d3-3" value="" style="endArrow=classic;html=1;rounded=0;entryX=0.45;entryY=-0.067;entryDx=0;entryDy=0;entryPerimeter=0;exitX=0;exitY=0.5;exitDx=0;exitDy=0;" parent="1" source="HL4wUpQa_9BszUXqO1d3-1" target="HL4wUpQa_9BszUXqO1d3-2" edge="1">
          <mxGeometry width="50" height="50" relative="1" as="geometry">
            <mxPoint x="210" y="280" as="sourcePoint" />
            <mxPoint x="260" y="230" as="targetPoint" />
            <Array as="points">
              <mxPoint x="264" y="230" />
            </Array>
          </mxGeometry>
        </mxCell>
        <mxCell id="HL4wUpQa_9BszUXqO1d3-4" value="Si" style="text;html=1;strokeColor=none;fillColor=none;align=center;verticalAlign=middle;whiteSpace=wrap;rounded=0;" parent="1" vertex="1">
          <mxGeometry x="216" y="250" width="60" height="30" as="geometry" />
        </mxCell>
        <mxCell id="HL4wUpQa_9BszUXqO1d3-5" value="" style="endArrow=classic;html=1;rounded=0;exitX=0.5;exitY=1;exitDx=0;exitDy=0;" parent="1" source="HL4wUpQa_9BszUXqO1d3-1" target="RMnhrKZfnsFbdMeV7oKZ-18" edge="1">
          <mxGeometry width="50" height="50" relative="1" as="geometry">
            <mxPoint x="390" y="430" as="sourcePoint" />
            <mxPoint x="440" y="380" as="targetPoint" />
            <Array as="points" />
          </mxGeometry>
        </mxCell>
        <mxCell id="HL4wUpQa_9BszUXqO1d3-6" value="No" style="text;html=1;strokeColor=none;fillColor=none;align=center;verticalAlign=middle;whiteSpace=wrap;rounded=0;" parent="1" vertex="1">
          <mxGeometry x="364" y="360" width="60" height="30" as="geometry" />
        </mxCell>
        <mxCell id="HL4wUpQa_9BszUXqO1d3-7" value="" style="endArrow=classic;html=1;rounded=0;exitX=0.417;exitY=1;exitDx=0;exitDy=0;exitPerimeter=0;" parent="1" source="HL4wUpQa_9BszUXqO1d3-2" edge="1">
          <mxGeometry width="50" height="50" relative="1" as="geometry">
            <mxPoint x="390" y="430" as="sourcePoint" />
            <mxPoint x="370" y="480" as="targetPoint" />
          </mxGeometry>
        </mxCell>
        <mxCell id="xekQoF_mFTuRHG7IAeSE-1" value="Finalizar gestión de consulta del Paciente" style="rounded=1;whiteSpace=wrap;html=1;fillColor=#fff2cc;strokeColor=#d6b656;" parent="1" vertex="1">
          <mxGeometry x="120" y="484" width="120" height="60" as="geometry" />
        </mxCell>
        <mxCell id="xekQoF_mFTuRHG7IAeSE-2" value="" style="endArrow=classic;html=1;rounded=0;exitX=0.5;exitY=1;exitDx=0;exitDy=0;entryX=0.5;entryY=0;entryDx=0;entryDy=0;" parent="1" source="xekQoF_mFTuRHG7IAeSE-1" target="RMnhrKZfnsFbdMeV7oKZ-24" edge="1">
          <mxGeometry width="50" height="50" relative="1" as="geometry">
            <mxPoint x="250" y="615" as="sourcePoint" />
            <mxPoint x="300" y="565" as="targetPoint" />
          </mxGeometry>
        </mxCell>
      </root>
    </mxGraphModel>
  </diagram>
  <diagram name="Diagrama de Laboratorio" id="5OnZy8I1DerMemIDZ4Z2">
    <mxGraphModel dx="1422" dy="794" grid="1" gridSize="10" guides="1" tooltips="1" connect="1" arrows="1" fold="1" page="1" pageScale="1" pageWidth="827" pageHeight="1169" math="0" shadow="0">
      <root>
        <mxCell id="z8_920ZuaEv_8N6seaUg-0" />
        <mxCell id="z8_920ZuaEv_8N6seaUg-1" parent="z8_920ZuaEv_8N6seaUg-0" />
        <mxCell id="z8_920ZuaEv_8N6seaUg-2" value="Inicio" style="ellipse;whiteSpace=wrap;html=1;aspect=fixed;fillColor=#d5e8d4;strokeColor=#82b366;" parent="z8_920ZuaEv_8N6seaUg-1" vertex="1">
          <mxGeometry x="40" y="50" width="60" height="60" as="geometry" />
        </mxCell>
        <mxCell id="z8_920ZuaEv_8N6seaUg-3" value="Admisión" style="rounded=1;whiteSpace=wrap;html=1;fillColor=#fff2cc;strokeColor=#d6b656;" parent="z8_920ZuaEv_8N6seaUg-1" vertex="1">
          <mxGeometry x="160" y="50" width="120" height="60" as="geometry" />
        </mxCell>
        <mxCell id="z8_920ZuaEv_8N6seaUg-4" value="" style="endArrow=classic;html=1;rounded=0;entryX=0;entryY=0.5;entryDx=0;entryDy=0;" parent="z8_920ZuaEv_8N6seaUg-1" source="z8_920ZuaEv_8N6seaUg-2" target="z8_920ZuaEv_8N6seaUg-3" edge="1">
          <mxGeometry width="50" height="50" relative="1" as="geometry">
            <mxPoint x="390" y="430" as="sourcePoint" />
            <mxPoint x="440" y="380" as="targetPoint" />
          </mxGeometry>
        </mxCell>
        <mxCell id="z8_920ZuaEv_8N6seaUg-5" value="Toma de Signos Vitales" style="rounded=1;whiteSpace=wrap;html=1;fillColor=#fff2cc;strokeColor=#d6b656;" parent="z8_920ZuaEv_8N6seaUg-1" vertex="1">
          <mxGeometry x="330" y="50" width="120" height="60" as="geometry" />
        </mxCell>
        <mxCell id="z8_920ZuaEv_8N6seaUg-6" value="" style="endArrow=classic;html=1;rounded=0;exitX=1;exitY=0.5;exitDx=0;exitDy=0;" parent="z8_920ZuaEv_8N6seaUg-1" source="z8_920ZuaEv_8N6seaUg-3" target="z8_920ZuaEv_8N6seaUg-5" edge="1">
          <mxGeometry width="50" height="50" relative="1" as="geometry">
            <mxPoint x="390" y="420" as="sourcePoint" />
            <mxPoint x="440" y="370" as="targetPoint" />
          </mxGeometry>
        </mxCell>
        <mxCell id="z8_920ZuaEv_8N6seaUg-7" value="Ingreso al Modulo de Consultas" style="rounded=1;whiteSpace=wrap;html=1;fillColor=#fff2cc;strokeColor=#d6b656;" parent="z8_920ZuaEv_8N6seaUg-1" vertex="1">
          <mxGeometry x="510" y="50" width="120" height="60" as="geometry" />
        </mxCell>
        <mxCell id="z8_920ZuaEv_8N6seaUg-8" value="" style="endArrow=classic;html=1;rounded=0;exitX=1;exitY=0.5;exitDx=0;exitDy=0;" parent="z8_920ZuaEv_8N6seaUg-1" source="z8_920ZuaEv_8N6seaUg-5" target="z8_920ZuaEv_8N6seaUg-7" edge="1">
          <mxGeometry width="50" height="50" relative="1" as="geometry">
            <mxPoint x="390" y="420" as="sourcePoint" />
            <mxPoint x="440" y="370" as="targetPoint" />
          </mxGeometry>
        </mxCell>
        <mxCell id="z8_920ZuaEv_8N6seaUg-15" value="Solicitud de Prueba Diagnostica (Laboratorio o Imagen)" style="rounded=1;whiteSpace=wrap;html=1;fillColor=#fff2cc;strokeColor=#d6b656;" parent="z8_920ZuaEv_8N6seaUg-1" vertex="1">
          <mxGeometry x="510" y="180" width="120" height="60" as="geometry" />
        </mxCell>
        <mxCell id="z8_920ZuaEv_8N6seaUg-17" value="Recepción solicitud" style="rounded=1;whiteSpace=wrap;html=1;fillColor=#fff2cc;strokeColor=#d6b656;" parent="z8_920ZuaEv_8N6seaUg-1" vertex="1">
          <mxGeometry x="510" y="288" width="120" height="60" as="geometry" />
        </mxCell>
        <mxCell id="z8_920ZuaEv_8N6seaUg-18" value="" style="endArrow=classic;html=1;rounded=0;" parent="z8_920ZuaEv_8N6seaUg-1" source="z8_920ZuaEv_8N6seaUg-15" target="z8_920ZuaEv_8N6seaUg-17" edge="1">
          <mxGeometry width="50" height="50" relative="1" as="geometry">
            <mxPoint x="210" y="370" as="sourcePoint" />
            <mxPoint x="260" y="320" as="targetPoint" />
          </mxGeometry>
        </mxCell>
        <mxCell id="z8_920ZuaEv_8N6seaUg-20" value="Realización de Pruebas Diagnosticas al Paciente" style="rounded=1;whiteSpace=wrap;html=1;fillColor=#fff2cc;strokeColor=#d6b656;" parent="z8_920ZuaEv_8N6seaUg-1" vertex="1">
          <mxGeometry x="510" y="390" width="120" height="60" as="geometry" />
        </mxCell>
        <mxCell id="z8_920ZuaEv_8N6seaUg-22" value="Alta del Paciente" style="rounded=1;whiteSpace=wrap;html=1;fillColor=#fff2cc;strokeColor=#d6b656;" parent="z8_920ZuaEv_8N6seaUg-1" vertex="1">
          <mxGeometry x="136" y="791" width="120" height="60" as="geometry" />
        </mxCell>
        <mxCell id="z8_920ZuaEv_8N6seaUg-23" value="" style="endArrow=classic;html=1;rounded=0;" parent="z8_920ZuaEv_8N6seaUg-1" source="z8_920ZuaEv_8N6seaUg-17" target="z8_920ZuaEv_8N6seaUg-20" edge="1">
          <mxGeometry width="50" height="50" relative="1" as="geometry">
            <mxPoint x="210" y="338" as="sourcePoint" />
            <mxPoint x="260" y="288" as="targetPoint" />
          </mxGeometry>
        </mxCell>
        <mxCell id="z8_920ZuaEv_8N6seaUg-24" value="Fin" style="ellipse;whiteSpace=wrap;html=1;aspect=fixed;fillColor=#f8cecc;strokeColor=#b85450;" parent="z8_920ZuaEv_8N6seaUg-1" vertex="1">
          <mxGeometry x="20" y="791" width="60" height="60" as="geometry" />
        </mxCell>
        <mxCell id="z8_920ZuaEv_8N6seaUg-25" value="" style="endArrow=classic;html=1;rounded=0;exitX=0;exitY=0.5;exitDx=0;exitDy=0;" parent="z8_920ZuaEv_8N6seaUg-1" source="z8_920ZuaEv_8N6seaUg-22" target="z8_920ZuaEv_8N6seaUg-24" edge="1">
          <mxGeometry width="50" height="50" relative="1" as="geometry">
            <mxPoint x="70" y="771" as="sourcePoint" />
            <mxPoint x="120" y="721" as="targetPoint" />
          </mxGeometry>
        </mxCell>
        <mxCell id="6TgBuLALcDRJESAb5uaZ-0" value="" style="endArrow=classic;html=1;rounded=0;exitX=0.5;exitY=1;exitDx=0;exitDy=0;" parent="z8_920ZuaEv_8N6seaUg-1" source="z8_920ZuaEv_8N6seaUg-7" target="z8_920ZuaEv_8N6seaUg-15" edge="1">
          <mxGeometry width="50" height="50" relative="1" as="geometry">
            <mxPoint x="390" y="410" as="sourcePoint" />
            <mxPoint x="440" y="360" as="targetPoint" />
          </mxGeometry>
        </mxCell>
        <mxCell id="6TgBuLALcDRJESAb5uaZ-1" value="Registro y adjunto de resultados de pruebas Diagnosticas" style="rounded=1;whiteSpace=wrap;html=1;fillColor=#fff2cc;strokeColor=#d6b656;" parent="z8_920ZuaEv_8N6seaUg-1" vertex="1">
          <mxGeometry x="510" y="500" width="120" height="60" as="geometry" />
        </mxCell>
        <mxCell id="6TgBuLALcDRJESAb5uaZ-2" value="" style="endArrow=classic;html=1;rounded=0;exitX=0.5;exitY=1;exitDx=0;exitDy=0;" parent="z8_920ZuaEv_8N6seaUg-1" source="z8_920ZuaEv_8N6seaUg-20" target="6TgBuLALcDRJESAb5uaZ-1" edge="1">
          <mxGeometry width="50" height="50" relative="1" as="geometry">
            <mxPoint x="390" y="390" as="sourcePoint" />
            <mxPoint x="440" y="340" as="targetPoint" />
          </mxGeometry>
        </mxCell>
        <mxCell id="6TgBuLALcDRJESAb5uaZ-3" value="Revisión de Pruebas Diagnosticas" style="rounded=1;whiteSpace=wrap;html=1;fillColor=#fff2cc;strokeColor=#d6b656;" parent="z8_920ZuaEv_8N6seaUg-1" vertex="1">
          <mxGeometry x="330" y="500" width="120" height="60" as="geometry" />
        </mxCell>
        <mxCell id="6TgBuLALcDRJESAb5uaZ-4" value="Esta actividad indica el retorno al modulo de Consultas donde el Doctor solicitante revisa las pruebas solicitadas al laboratorio o Imagen." style="text;html=1;strokeColor=none;fillColor=none;align=center;verticalAlign=middle;whiteSpace=wrap;rounded=0;" parent="z8_920ZuaEv_8N6seaUg-1" vertex="1">
          <mxGeometry x="330" y="600" width="180" height="80" as="geometry" />
        </mxCell>
        <mxCell id="6TgBuLALcDRJESAb5uaZ-5" value="" style="endArrow=none;dashed=1;html=1;dashPattern=1 3;strokeWidth=2;rounded=0;entryX=0.45;entryY=1.017;entryDx=0;entryDy=0;entryPerimeter=0;" parent="z8_920ZuaEv_8N6seaUg-1" source="6TgBuLALcDRJESAb5uaZ-4" target="6TgBuLALcDRJESAb5uaZ-3" edge="1">
          <mxGeometry width="50" height="50" relative="1" as="geometry">
            <mxPoint x="390" y="330" as="sourcePoint" />
            <mxPoint x="390" y="570" as="targetPoint" />
          </mxGeometry>
        </mxCell>
        <mxCell id="6TgBuLALcDRJESAb5uaZ-6" value="" style="endArrow=classic;html=1;rounded=0;exitX=0;exitY=0.5;exitDx=0;exitDy=0;" parent="z8_920ZuaEv_8N6seaUg-1" source="6TgBuLALcDRJESAb5uaZ-1" target="6TgBuLALcDRJESAb5uaZ-3" edge="1">
          <mxGeometry width="50" height="50" relative="1" as="geometry">
            <mxPoint x="390" y="320" as="sourcePoint" />
            <mxPoint x="440" y="270" as="targetPoint" />
          </mxGeometry>
        </mxCell>
        <mxCell id="6TgBuLALcDRJESAb5uaZ-7" value="¿El paciente requiere mas pruebas Diagnosticas?" style="rhombus;whiteSpace=wrap;html=1;fillColor=#fff2cc;strokeColor=#d6b656;" parent="z8_920ZuaEv_8N6seaUg-1" vertex="1">
          <mxGeometry x="130" y="450" width="160" height="170" as="geometry" />
        </mxCell>
        <mxCell id="6TgBuLALcDRJESAb5uaZ-8" value="Si" style="text;html=1;strokeColor=none;fillColor=none;align=center;verticalAlign=middle;whiteSpace=wrap;rounded=0;" parent="z8_920ZuaEv_8N6seaUg-1" vertex="1">
          <mxGeometry x="200" y="303" width="60" height="30" as="geometry" />
        </mxCell>
        <mxCell id="6TgBuLALcDRJESAb5uaZ-9" value="" style="endArrow=classic;html=1;rounded=0;exitX=0.5;exitY=0;exitDx=0;exitDy=0;entryX=0;entryY=0.25;entryDx=0;entryDy=0;" parent="z8_920ZuaEv_8N6seaUg-1" source="6TgBuLALcDRJESAb5uaZ-7" target="z8_920ZuaEv_8N6seaUg-15" edge="1">
          <mxGeometry width="50" height="50" relative="1" as="geometry">
            <mxPoint x="210" y="420" as="sourcePoint" />
            <mxPoint x="260" y="370" as="targetPoint" />
            <Array as="points">
              <mxPoint x="210" y="200" />
            </Array>
          </mxGeometry>
        </mxCell>
        <mxCell id="6TgBuLALcDRJESAb5uaZ-10" value="No" style="text;html=1;strokeColor=none;fillColor=none;align=center;verticalAlign=middle;whiteSpace=wrap;rounded=0;" parent="z8_920ZuaEv_8N6seaUg-1" vertex="1">
          <mxGeometry x="210" y="630" width="60" height="30" as="geometry" />
        </mxCell>
        <mxCell id="6TgBuLALcDRJESAb5uaZ-11" value="" style="endArrow=classic;html=1;rounded=0;exitX=0.008;exitY=0.633;exitDx=0;exitDy=0;exitPerimeter=0;" parent="z8_920ZuaEv_8N6seaUg-1" source="6TgBuLALcDRJESAb5uaZ-3" target="6TgBuLALcDRJESAb5uaZ-7" edge="1">
          <mxGeometry width="50" height="50" relative="1" as="geometry">
            <mxPoint x="390" y="510" as="sourcePoint" />
            <mxPoint x="440" y="460" as="targetPoint" />
          </mxGeometry>
        </mxCell>
        <mxCell id="6TgBuLALcDRJESAb5uaZ-12" value="Finalizar gestión de consulta del Paciente" style="rounded=1;whiteSpace=wrap;html=1;fillColor=#fff2cc;strokeColor=#d6b656;" parent="z8_920ZuaEv_8N6seaUg-1" vertex="1">
          <mxGeometry x="150" y="670" width="120" height="60" as="geometry" />
        </mxCell>
        <mxCell id="6TgBuLALcDRJESAb5uaZ-13" value="" style="endArrow=classic;html=1;rounded=0;exitX=0.5;exitY=1;exitDx=0;exitDy=0;entryX=0.5;entryY=0;entryDx=0;entryDy=0;" parent="z8_920ZuaEv_8N6seaUg-1" source="6TgBuLALcDRJESAb5uaZ-7" target="6TgBuLALcDRJESAb5uaZ-12" edge="1">
          <mxGeometry width="50" height="50" relative="1" as="geometry">
            <mxPoint x="250" y="630" as="sourcePoint" />
            <mxPoint x="300" y="580" as="targetPoint" />
          </mxGeometry>
        </mxCell>
        <mxCell id="6TgBuLALcDRJESAb5uaZ-14" value="" style="endArrow=classic;html=1;rounded=0;exitX=0.383;exitY=0.983;exitDx=0;exitDy=0;exitPerimeter=0;entryX=0.5;entryY=0;entryDx=0;entryDy=0;" parent="z8_920ZuaEv_8N6seaUg-1" source="6TgBuLALcDRJESAb5uaZ-12" target="z8_920ZuaEv_8N6seaUg-22" edge="1">
          <mxGeometry width="50" height="50" relative="1" as="geometry">
            <mxPoint x="390" y="790" as="sourcePoint" />
            <mxPoint x="440" y="740" as="targetPoint" />
          </mxGeometry>
        </mxCell>
      </root>
    </mxGraphModel>
  </diagram>
  <diagram id="fpzg7LJw4lmUzkPpo8XS" name="CU General de Historia Clinica">
    <mxGraphModel dx="1422" dy="794" grid="1" gridSize="10" guides="1" tooltips="1" connect="1" arrows="1" fold="1" page="1" pageScale="1" pageWidth="827" pageHeight="1169" math="0" shadow="0">
      <root>
        <mxCell id="0" />
        <mxCell id="1" parent="0" />
        <mxCell id="q2o7Ql81qNlWxovkUEFe-1" value="Buscar paciente" style="ellipse;whiteSpace=wrap;html=1;fillColor=#ffe6cc;strokeColor=#d79b00;" parent="1" vertex="1">
          <mxGeometry x="100" y="120" width="140" height="70" as="geometry" />
        </mxCell>
        <mxCell id="q2o7Ql81qNlWxovkUEFe-2" value="&amp;lt;z" style="ellipse;whiteSpace=wrap;html=1;fillColor=#dae8fc;strokeColor=#6c8ebf;" parent="1" vertex="1">
          <mxGeometry x="750" y="515" width="140" height="70" as="geometry" />
        </mxCell>
        <mxCell id="q2o7Ql81qNlWxovkUEFe-3" value="Registrar Historia Clínica Pediatrica" style="ellipse;whiteSpace=wrap;html=1;fillColor=#dae8fc;strokeColor=#6c8ebf;" parent="1" vertex="1">
          <mxGeometry x="100" y="515" width="140" height="70" as="geometry" />
        </mxCell>
        <mxCell id="q2o7Ql81qNlWxovkUEFe-4" value="Registrar Historia Clínica de Adolescentes" style="ellipse;whiteSpace=wrap;html=1;fillColor=#dae8fc;strokeColor=#6c8ebf;" parent="1" vertex="1">
          <mxGeometry x="260" y="830" width="140" height="70" as="geometry" />
        </mxCell>
        <mxCell id="q2o7Ql81qNlWxovkUEFe-5" value="Registrar Historia Clínica de Adultos" style="ellipse;whiteSpace=wrap;html=1;fillColor=#dae8fc;strokeColor=#6c8ebf;" parent="1" vertex="1">
          <mxGeometry x="750" y="820" width="140" height="70" as="geometry" />
        </mxCell>
        <mxCell id="q2o7Ql81qNlWxovkUEFe-6" value="Use" style="endArrow=open;endSize=12;dashed=1;html=1;rounded=0;exitX=0.5;exitY=1;exitDx=0;exitDy=0;" parent="1" source="q2o7Ql81qNlWxovkUEFe-1" target="q2o7Ql81qNlWxovkUEFe-2" edge="1">
          <mxGeometry width="160" relative="1" as="geometry">
            <mxPoint x="230" y="134.5" as="sourcePoint" />
            <mxPoint x="390" y="134.5" as="targetPoint" />
          </mxGeometry>
        </mxCell>
        <mxCell id="q2o7Ql81qNlWxovkUEFe-7" value="Extends" style="endArrow=block;endSize=16;endFill=0;html=1;rounded=0;entryX=1;entryY=0.5;entryDx=0;entryDy=0;exitX=0;exitY=0.5;exitDx=0;exitDy=0;" parent="1" source="q2o7Ql81qNlWxovkUEFe-2" target="q2o7Ql81qNlWxovkUEFe-3" edge="1">
          <mxGeometry width="160" relative="1" as="geometry">
            <mxPoint x="160" y="420" as="sourcePoint" />
            <mxPoint x="480" y="180" as="targetPoint" />
          </mxGeometry>
        </mxCell>
        <mxCell id="q2o7Ql81qNlWxovkUEFe-8" value="Extends" style="endArrow=block;endSize=16;endFill=0;html=1;rounded=0;entryX=0.5;entryY=0;entryDx=0;entryDy=0;exitX=0.5;exitY=1;exitDx=0;exitDy=0;" parent="1" source="q2o7Ql81qNlWxovkUEFe-2" target="q2o7Ql81qNlWxovkUEFe-4" edge="1">
          <mxGeometry width="160" relative="1" as="geometry">
            <mxPoint x="450" y="170" as="sourcePoint" />
            <mxPoint x="610" y="220" as="targetPoint" />
          </mxGeometry>
        </mxCell>
        <mxCell id="q2o7Ql81qNlWxovkUEFe-9" value="Extends" style="endArrow=block;endSize=16;endFill=0;html=1;rounded=0;entryX=0.5;entryY=0;entryDx=0;entryDy=0;exitX=0.5;exitY=1;exitDx=0;exitDy=0;" parent="1" source="q2o7Ql81qNlWxovkUEFe-2" target="q2o7Ql81qNlWxovkUEFe-5" edge="1">
          <mxGeometry width="160" relative="1" as="geometry">
            <mxPoint x="450" y="170" as="sourcePoint" />
            <mxPoint x="630" y="190" as="targetPoint" />
          </mxGeometry>
        </mxCell>
        <mxCell id="q2o7Ql81qNlWxovkUEFe-10" value="Registro de Antecedentes Familiares" style="ellipse;whiteSpace=wrap;html=1;" parent="1" vertex="1">
          <mxGeometry x="990" y="80" width="140" height="70" as="geometry" />
        </mxCell>
        <mxCell id="q2o7Ql81qNlWxovkUEFe-11" value="Registro de Antecedentes personales" style="ellipse;whiteSpace=wrap;html=1;" parent="1" vertex="1">
          <mxGeometry x="1320" y="180" width="140" height="70" as="geometry" />
        </mxCell>
        <mxCell id="q2o7Ql81qNlWxovkUEFe-12" value="Registro de Antecedentes patológicos" style="ellipse;whiteSpace=wrap;html=1;" parent="1" vertex="1">
          <mxGeometry x="670" y="80" width="140" height="70" as="geometry" />
        </mxCell>
        <mxCell id="q2o7Ql81qNlWxovkUEFe-13" value="Registro de Antecedentes no &lt;br&gt;patológicos" style="ellipse;whiteSpace=wrap;html=1;" parent="1" vertex="1">
          <mxGeometry x="510" y="80" width="140" height="70" as="geometry" />
        </mxCell>
        <mxCell id="q2o7Ql81qNlWxovkUEFe-14" value="Consultar Datos de Discapacidad" style="ellipse;whiteSpace=wrap;html=1;" parent="1" vertex="1">
          <mxGeometry x="830" y="80" width="140" height="70" as="geometry" />
        </mxCell>
        <mxCell id="q2o7Ql81qNlWxovkUEFe-15" value="Consulta de Datos de Violencia" style="ellipse;whiteSpace=wrap;html=1;" parent="1" vertex="1">
          <mxGeometry x="1320" y="270" width="140" height="70" as="geometry" />
        </mxCell>
        <mxCell id="q2o7Ql81qNlWxovkUEFe-16" value="Registro de Alertas" style="ellipse;whiteSpace=wrap;html=1;" parent="1" vertex="1">
          <mxGeometry x="1320" y="850" width="140" height="70" as="geometry" />
        </mxCell>
        <mxCell id="q2o7Ql81qNlWxovkUEFe-17" value="Registro de Notificaciones" style="ellipse;whiteSpace=wrap;html=1;" parent="1" vertex="1">
          <mxGeometry x="1320" y="930" width="140" height="70" as="geometry" />
        </mxCell>
        <mxCell id="q2o7Ql81qNlWxovkUEFe-18" value="Use" style="endArrow=open;endSize=12;dashed=1;html=1;rounded=0;entryX=0.5;entryY=1;entryDx=0;entryDy=0;exitX=0.721;exitY=0.057;exitDx=0;exitDy=0;exitPerimeter=0;" parent="1" source="q2o7Ql81qNlWxovkUEFe-2" target="q2o7Ql81qNlWxovkUEFe-10" edge="1">
          <mxGeometry width="160" relative="1" as="geometry">
            <mxPoint x="230" y="254.5" as="sourcePoint" />
            <mxPoint x="390" y="254.5" as="targetPoint" />
          </mxGeometry>
        </mxCell>
        <mxCell id="q2o7Ql81qNlWxovkUEFe-19" value="Use" style="endArrow=open;endSize=12;dashed=1;html=1;rounded=0;exitX=1;exitY=0;exitDx=0;exitDy=0;" parent="1" source="q2o7Ql81qNlWxovkUEFe-2" target="q2o7Ql81qNlWxovkUEFe-11" edge="1">
          <mxGeometry width="160" relative="1" as="geometry">
            <mxPoint x="230" y="254.5" as="sourcePoint" />
            <mxPoint x="390" y="254.5" as="targetPoint" />
          </mxGeometry>
        </mxCell>
        <mxCell id="q2o7Ql81qNlWxovkUEFe-20" value="Use" style="endArrow=open;endSize=12;dashed=1;html=1;rounded=0;" parent="1" source="q2o7Ql81qNlWxovkUEFe-2" target="q2o7Ql81qNlWxovkUEFe-12" edge="1">
          <mxGeometry width="160" relative="1" as="geometry">
            <mxPoint x="230" y="260" as="sourcePoint" />
            <mxPoint x="390" y="260" as="targetPoint" />
          </mxGeometry>
        </mxCell>
        <mxCell id="q2o7Ql81qNlWxovkUEFe-21" value="Use" style="endArrow=open;endSize=12;dashed=1;html=1;rounded=0;" parent="1" source="q2o7Ql81qNlWxovkUEFe-2" target="q2o7Ql81qNlWxovkUEFe-13" edge="1">
          <mxGeometry width="160" relative="1" as="geometry">
            <mxPoint x="390" y="450" as="sourcePoint" />
            <mxPoint x="550" y="450" as="targetPoint" />
          </mxGeometry>
        </mxCell>
        <mxCell id="q2o7Ql81qNlWxovkUEFe-22" value="Use" style="endArrow=open;endSize=12;dashed=1;html=1;rounded=0;entryX=0.5;entryY=1;entryDx=0;entryDy=0;" parent="1" source="q2o7Ql81qNlWxovkUEFe-2" target="q2o7Ql81qNlWxovkUEFe-14" edge="1">
          <mxGeometry width="160" relative="1" as="geometry">
            <mxPoint x="390" y="450" as="sourcePoint" />
            <mxPoint x="550" y="450" as="targetPoint" />
          </mxGeometry>
        </mxCell>
        <mxCell id="q2o7Ql81qNlWxovkUEFe-23" value="Use" style="endArrow=open;endSize=12;dashed=1;html=1;rounded=0;" parent="1" source="q2o7Ql81qNlWxovkUEFe-2" target="q2o7Ql81qNlWxovkUEFe-15" edge="1">
          <mxGeometry width="160" relative="1" as="geometry">
            <mxPoint x="390" y="450" as="sourcePoint" />
            <mxPoint x="550" y="450" as="targetPoint" />
          </mxGeometry>
        </mxCell>
        <mxCell id="q2o7Ql81qNlWxovkUEFe-24" value="Use" style="endArrow=open;endSize=12;dashed=1;html=1;rounded=0;" parent="1" source="q2o7Ql81qNlWxovkUEFe-2" target="q2o7Ql81qNlWxovkUEFe-16" edge="1">
          <mxGeometry width="160" relative="1" as="geometry">
            <mxPoint x="390" y="450" as="sourcePoint" />
            <mxPoint x="550" y="450" as="targetPoint" />
          </mxGeometry>
        </mxCell>
        <mxCell id="q2o7Ql81qNlWxovkUEFe-25" value="Use" style="endArrow=open;endSize=12;dashed=1;html=1;rounded=0;" parent="1" source="q2o7Ql81qNlWxovkUEFe-2" edge="1">
          <mxGeometry width="160" relative="1" as="geometry">
            <mxPoint x="390" y="450" as="sourcePoint" />
            <mxPoint x="1330" y="950" as="targetPoint" />
          </mxGeometry>
        </mxCell>
        <mxCell id="q2o7Ql81qNlWxovkUEFe-26" value="Registro de antecedentes del parto" style="ellipse;whiteSpace=wrap;html=1;" parent="1" vertex="1">
          <mxGeometry x="20" y="620" width="140" height="70" as="geometry" />
        </mxCell>
        <mxCell id="q2o7Ql81qNlWxovkUEFe-27" value="Registro de antecedentes postnatales" style="ellipse;whiteSpace=wrap;html=1;" parent="1" vertex="1">
          <mxGeometry x="100" y="710" width="140" height="70" as="geometry" />
        </mxCell>
        <mxCell id="q2o7Ql81qNlWxovkUEFe-28" value="Registro de alimentación" style="ellipse;whiteSpace=wrap;html=1;" parent="1" vertex="1">
          <mxGeometry x="190" y="635" width="140" height="70" as="geometry" />
        </mxCell>
        <mxCell id="q2o7Ql81qNlWxovkUEFe-29" value="Consulta de Esquema de Vacunación (SIPAI)" style="ellipse;whiteSpace=wrap;html=1;" parent="1" vertex="1">
          <mxGeometry x="344" y="80" width="140" height="70" as="geometry" />
        </mxCell>
        <mxCell id="q2o7Ql81qNlWxovkUEFe-30" value="Use" style="endArrow=open;endSize=12;dashed=1;html=1;rounded=0;" parent="1" source="q2o7Ql81qNlWxovkUEFe-2" target="q2o7Ql81qNlWxovkUEFe-29" edge="1">
          <mxGeometry width="160" relative="1" as="geometry">
            <mxPoint x="350" y="530" as="sourcePoint" />
            <mxPoint x="510" y="530" as="targetPoint" />
          </mxGeometry>
        </mxCell>
        <mxCell id="q2o7Ql81qNlWxovkUEFe-31" value="Registro de Desarrollo Psicomotor" style="ellipse;whiteSpace=wrap;html=1;" parent="1" vertex="1">
          <mxGeometry x="310" y="580" width="140" height="70" as="geometry" />
        </mxCell>
        <mxCell id="q2o7Ql81qNlWxovkUEFe-32" value="Registro de Historia Socio Economica" style="ellipse;whiteSpace=wrap;html=1;" parent="1" vertex="1">
          <mxGeometry x="1140" y="80" width="140" height="70" as="geometry" />
        </mxCell>
        <mxCell id="q2o7Ql81qNlWxovkUEFe-33" value="Use" style="endArrow=open;endSize=12;dashed=1;html=1;rounded=0;" parent="1" source="q2o7Ql81qNlWxovkUEFe-2" target="q2o7Ql81qNlWxovkUEFe-32" edge="1">
          <mxGeometry width="160" relative="1" as="geometry">
            <mxPoint x="610" y="420" as="sourcePoint" />
            <mxPoint x="770" y="420" as="targetPoint" />
          </mxGeometry>
        </mxCell>
        <mxCell id="q2o7Ql81qNlWxovkUEFe-34" value="Registro de Examen Físico" style="ellipse;whiteSpace=wrap;html=1;" parent="1" vertex="1">
          <mxGeometry x="1320" y="530" width="140" height="70" as="geometry" />
        </mxCell>
        <mxCell id="q2o7Ql81qNlWxovkUEFe-35" value="Use" style="endArrow=open;endSize=12;dashed=1;html=1;rounded=0;" parent="1" source="q2o7Ql81qNlWxovkUEFe-2" target="q2o7Ql81qNlWxovkUEFe-34" edge="1">
          <mxGeometry width="160" relative="1" as="geometry">
            <mxPoint x="610" y="410" as="sourcePoint" />
            <mxPoint x="770" y="410" as="targetPoint" />
          </mxGeometry>
        </mxCell>
        <mxCell id="q2o7Ql81qNlWxovkUEFe-36" value="Use" style="endArrow=open;endSize=12;dashed=1;html=1;rounded=0;exitX=0.45;exitY=1;exitDx=0;exitDy=0;exitPerimeter=0;" parent="1" source="q2o7Ql81qNlWxovkUEFe-3" target="q2o7Ql81qNlWxovkUEFe-26" edge="1">
          <mxGeometry width="160" relative="1" as="geometry">
            <mxPoint x="230" y="810" as="sourcePoint" />
            <mxPoint x="390" y="810" as="targetPoint" />
          </mxGeometry>
        </mxCell>
        <mxCell id="q2o7Ql81qNlWxovkUEFe-37" value="Use" style="endArrow=open;endSize=12;dashed=1;html=1;rounded=0;" parent="1" source="q2o7Ql81qNlWxovkUEFe-3" target="q2o7Ql81qNlWxovkUEFe-27" edge="1">
          <mxGeometry width="160" relative="1" as="geometry">
            <mxPoint x="710" y="740" as="sourcePoint" />
            <mxPoint x="870" y="740" as="targetPoint" />
          </mxGeometry>
        </mxCell>
        <mxCell id="q2o7Ql81qNlWxovkUEFe-38" value="Use" style="endArrow=open;endSize=12;dashed=1;html=1;rounded=0;" parent="1" source="q2o7Ql81qNlWxovkUEFe-3" target="q2o7Ql81qNlWxovkUEFe-28" edge="1">
          <mxGeometry width="160" relative="1" as="geometry">
            <mxPoint x="710" y="740" as="sourcePoint" />
            <mxPoint x="870" y="740" as="targetPoint" />
          </mxGeometry>
        </mxCell>
        <mxCell id="q2o7Ql81qNlWxovkUEFe-39" value="Use" style="endArrow=open;endSize=12;dashed=1;html=1;rounded=0;" parent="1" source="q2o7Ql81qNlWxovkUEFe-3" target="q2o7Ql81qNlWxovkUEFe-31" edge="1">
          <mxGeometry width="160" relative="1" as="geometry">
            <mxPoint x="710" y="740" as="sourcePoint" />
            <mxPoint x="870" y="740" as="targetPoint" />
          </mxGeometry>
        </mxCell>
        <mxCell id="q2o7Ql81qNlWxovkUEFe-40" value="Consultar datos personales del paciente (Consulta Externa)" style="ellipse;whiteSpace=wrap;html=1;" parent="1" vertex="1">
          <mxGeometry x="1320" y="690" width="140" height="70" as="geometry" />
        </mxCell>
        <mxCell id="q2o7Ql81qNlWxovkUEFe-41" value="Use" style="endArrow=open;endSize=12;dashed=1;html=1;rounded=0;" parent="1" source="q2o7Ql81qNlWxovkUEFe-2" target="q2o7Ql81qNlWxovkUEFe-40" edge="1">
          <mxGeometry width="160" relative="1" as="geometry">
            <mxPoint x="780" y="500" as="sourcePoint" />
            <mxPoint x="940" y="500" as="targetPoint" />
          </mxGeometry>
        </mxCell>
        <mxCell id="q2o7Ql81qNlWxovkUEFe-42" value="Buscar datos de consulta principal del paciente&amp;nbsp;" style="ellipse;whiteSpace=wrap;html=1;" parent="1" vertex="1">
          <mxGeometry x="1300" y="80" width="140" height="70" as="geometry" />
        </mxCell>
        <mxCell id="q2o7Ql81qNlWxovkUEFe-43" value="Obtener detalle de consulta principal del paciente" style="ellipse;whiteSpace=wrap;html=1;" parent="1" vertex="1">
          <mxGeometry x="1500" y="90" width="140" height="70" as="geometry" />
        </mxCell>
        <mxCell id="q2o7Ql81qNlWxovkUEFe-44" value="Obtener datos de Educación (Servicio web MINED)" style="ellipse;whiteSpace=wrap;html=1;" parent="1" vertex="1">
          <mxGeometry x="1320" y="610" width="140" height="70" as="geometry" />
        </mxCell>
        <mxCell id="q2o7Ql81qNlWxovkUEFe-45" value="Registrar información laboral" style="ellipse;whiteSpace=wrap;html=1;" parent="1" vertex="1">
          <mxGeometry x="1320" y="445" width="140" height="70" as="geometry" />
        </mxCell>
        <mxCell id="q2o7Ql81qNlWxovkUEFe-46" value="Registro de Datos de Vida Social" style="ellipse;whiteSpace=wrap;html=1;" parent="1" vertex="1">
          <mxGeometry x="30" y="1020" width="140" height="70" as="geometry" />
        </mxCell>
        <mxCell id="q2o7Ql81qNlWxovkUEFe-47" value="Use" style="endArrow=open;endSize=12;dashed=1;html=1;rounded=0;exitX=0.5;exitY=1;exitDx=0;exitDy=0;entryX=0.429;entryY=0.029;entryDx=0;entryDy=0;entryPerimeter=0;" parent="1" source="q2o7Ql81qNlWxovkUEFe-4" target="q2o7Ql81qNlWxovkUEFe-46" edge="1">
          <mxGeometry width="160" relative="1" as="geometry">
            <mxPoint x="740" y="640" as="sourcePoint" />
            <mxPoint x="900" y="640" as="targetPoint" />
          </mxGeometry>
        </mxCell>
        <mxCell id="q2o7Ql81qNlWxovkUEFe-48" value="Use" style="endArrow=open;endSize=12;dashed=1;html=1;rounded=0;" parent="1" source="q2o7Ql81qNlWxovkUEFe-2" target="q2o7Ql81qNlWxovkUEFe-45" edge="1">
          <mxGeometry width="160" relative="1" as="geometry">
            <mxPoint x="740" y="440" as="sourcePoint" />
            <mxPoint x="900" y="440" as="targetPoint" />
          </mxGeometry>
        </mxCell>
        <mxCell id="q2o7Ql81qNlWxovkUEFe-49" value="Use" style="endArrow=open;endSize=12;dashed=1;html=1;rounded=0;" parent="1" source="q2o7Ql81qNlWxovkUEFe-2" target="q2o7Ql81qNlWxovkUEFe-42" edge="1">
          <mxGeometry width="160" relative="1" as="geometry">
            <mxPoint x="740" y="440" as="sourcePoint" />
            <mxPoint x="900" y="440" as="targetPoint" />
          </mxGeometry>
        </mxCell>
        <mxCell id="q2o7Ql81qNlWxovkUEFe-50" value="Use" style="endArrow=open;endSize=12;dashed=1;html=1;rounded=0;" parent="1" source="q2o7Ql81qNlWxovkUEFe-2" target="q2o7Ql81qNlWxovkUEFe-44" edge="1">
          <mxGeometry width="160" relative="1" as="geometry">
            <mxPoint x="740" y="440" as="sourcePoint" />
            <mxPoint x="900" y="440" as="targetPoint" />
          </mxGeometry>
        </mxCell>
        <mxCell id="q2o7Ql81qNlWxovkUEFe-51" value="Extends" style="endArrow=block;endSize=16;endFill=0;html=1;rounded=0;" parent="1" source="q2o7Ql81qNlWxovkUEFe-42" target="q2o7Ql81qNlWxovkUEFe-43" edge="1">
          <mxGeometry width="160" relative="1" as="geometry">
            <mxPoint x="1160" y="210" as="sourcePoint" />
            <mxPoint x="1320" y="210" as="targetPoint" />
          </mxGeometry>
        </mxCell>
        <mxCell id="q2o7Ql81qNlWxovkUEFe-52" value="&lt;br&gt;Registro de Datos de Sexualidad&lt;br&gt;" style="ellipse;whiteSpace=wrap;html=1;" parent="1" vertex="1">
          <mxGeometry x="180" y="1020" width="140" height="70" as="geometry" />
        </mxCell>
        <mxCell id="q2o7Ql81qNlWxovkUEFe-53" value="Use" style="endArrow=open;endSize=12;dashed=1;html=1;rounded=0;exitX=0.5;exitY=1;exitDx=0;exitDy=0;" parent="1" source="q2o7Ql81qNlWxovkUEFe-4" target="q2o7Ql81qNlWxovkUEFe-52" edge="1">
          <mxGeometry width="160" relative="1" as="geometry">
            <mxPoint x="700" y="720" as="sourcePoint" />
            <mxPoint x="860" y="720" as="targetPoint" />
          </mxGeometry>
        </mxCell>
        <mxCell id="q2o7Ql81qNlWxovkUEFe-54" value="Registro de situación psico-emocional" style="ellipse;whiteSpace=wrap;html=1;" parent="1" vertex="1">
          <mxGeometry x="330" y="1020" width="140" height="70" as="geometry" />
        </mxCell>
        <mxCell id="q2o7Ql81qNlWxovkUEFe-55" value="Use" style="endArrow=open;endSize=12;dashed=1;html=1;rounded=0;exitX=0.5;exitY=1;exitDx=0;exitDy=0;" parent="1" source="q2o7Ql81qNlWxovkUEFe-4" target="q2o7Ql81qNlWxovkUEFe-54" edge="1">
          <mxGeometry width="160" relative="1" as="geometry">
            <mxPoint x="700" y="700" as="sourcePoint" />
            <mxPoint x="860" y="700" as="targetPoint" />
          </mxGeometry>
        </mxCell>
        <mxCell id="q2o7Ql81qNlWxovkUEFe-56" value="Consulta de antecedentes de Historias Clínicas" style="ellipse;whiteSpace=wrap;html=1;" parent="1" vertex="1">
          <mxGeometry x="480" y="1020" width="140" height="70" as="geometry" />
        </mxCell>
        <mxCell id="q2o7Ql81qNlWxovkUEFe-57" value="Use" style="endArrow=open;endSize=12;dashed=1;html=1;rounded=0;exitX=0.5;exitY=1;exitDx=0;exitDy=0;" parent="1" source="q2o7Ql81qNlWxovkUEFe-4" target="q2o7Ql81qNlWxovkUEFe-56" edge="1">
          <mxGeometry width="160" relative="1" as="geometry">
            <mxPoint x="820" y="600" as="sourcePoint" />
            <mxPoint x="980" y="600" as="targetPoint" />
          </mxGeometry>
        </mxCell>
        <mxCell id="q2o7Ql81qNlWxovkUEFe-58" value="Registro de antecedentes gineco-obstétricos" style="ellipse;whiteSpace=wrap;html=1;" parent="1" vertex="1">
          <mxGeometry x="1320" y="770" width="140" height="70" as="geometry" />
        </mxCell>
        <mxCell id="q2o7Ql81qNlWxovkUEFe-59" value="Registrar antecedentes laborales" style="ellipse;whiteSpace=wrap;html=1;" parent="1" vertex="1">
          <mxGeometry x="1320" y="360" width="140" height="70" as="geometry" />
        </mxCell>
        <mxCell id="q2o7Ql81qNlWxovkUEFe-60" value="Use" style="endArrow=open;endSize=12;dashed=1;html=1;rounded=0;" parent="1" source="q2o7Ql81qNlWxovkUEFe-2" target="q2o7Ql81qNlWxovkUEFe-59" edge="1">
          <mxGeometry width="160" relative="1" as="geometry">
            <mxPoint x="990" y="420" as="sourcePoint" />
            <mxPoint x="1150" y="420" as="targetPoint" />
          </mxGeometry>
        </mxCell>
        <mxCell id="q2o7Ql81qNlWxovkUEFe-61" value="Use" style="endArrow=open;endSize=12;dashed=1;html=1;rounded=0;" parent="1" source="q2o7Ql81qNlWxovkUEFe-2" target="q2o7Ql81qNlWxovkUEFe-58" edge="1">
          <mxGeometry width="160" relative="1" as="geometry">
            <mxPoint x="760" y="780" as="sourcePoint" />
            <mxPoint x="920" y="780" as="targetPoint" />
          </mxGeometry>
        </mxCell>
        <mxCell id="q2o7Ql81qNlWxovkUEFe-62" value="Módulo de Historia Clínica" style="text;align=center;fontStyle=1;verticalAlign=middle;spacingLeft=3;spacingRight=3;strokeColor=none;rotatable=0;points=[[0,0.5],[1,0.5]];portConstraint=eastwest;" parent="1" vertex="1">
          <mxGeometry x="80" y="40" width="80" height="26" as="geometry" />
        </mxCell>
        <mxCell id="q2o7Ql81qNlWxovkUEFe-63" value="Registro de Antecedentes Familiares" style="ellipse;whiteSpace=wrap;html=1;" parent="1" vertex="1">
          <mxGeometry x="990" y="80" width="140" height="70" as="geometry" />
        </mxCell>
        <mxCell id="q2o7Ql81qNlWxovkUEFe-64" value="Registro de Antecedentes patológicos" style="ellipse;whiteSpace=wrap;html=1;" parent="1" vertex="1">
          <mxGeometry x="670" y="80" width="140" height="70" as="geometry" />
        </mxCell>
        <mxCell id="q2o7Ql81qNlWxovkUEFe-65" value="Registro de Antecedentes no &lt;br&gt;patológicos" style="ellipse;whiteSpace=wrap;html=1;" parent="1" vertex="1">
          <mxGeometry x="510" y="80" width="140" height="70" as="geometry" />
        </mxCell>
        <mxCell id="q2o7Ql81qNlWxovkUEFe-66" value="Consultar Datos de Discapacidad" style="ellipse;whiteSpace=wrap;html=1;" parent="1" vertex="1">
          <mxGeometry x="830" y="80" width="140" height="70" as="geometry" />
        </mxCell>
        <mxCell id="q2o7Ql81qNlWxovkUEFe-67" value="Consulta de Esquema de Vacunación (SIPAI)" style="ellipse;whiteSpace=wrap;html=1;" parent="1" vertex="1">
          <mxGeometry x="344" y="80" width="140" height="70" as="geometry" />
        </mxCell>
        <mxCell id="q2o7Ql81qNlWxovkUEFe-68" value="Registro de Historia Socio Economica" style="ellipse;whiteSpace=wrap;html=1;" parent="1" vertex="1">
          <mxGeometry x="1140" y="80" width="140" height="70" as="geometry" />
        </mxCell>
        <mxCell id="q2o7Ql81qNlWxovkUEFe-69" value="Crear Historia Clínica" style="ellipse;whiteSpace=wrap;html=1;fillColor=#dae8fc;strokeColor=#6c8ebf;" parent="1" vertex="1">
          <mxGeometry x="750" y="515" width="140" height="70" as="geometry" />
        </mxCell>
        <mxCell id="q2o7Ql81qNlWxovkUEFe-70" value="Buscar datos de consulta principal del paciente&amp;nbsp;" style="ellipse;whiteSpace=wrap;html=1;" parent="1" vertex="1">
          <mxGeometry x="1300" y="80" width="140" height="70" as="geometry" />
        </mxCell>
        <mxCell id="q2o7Ql81qNlWxovkUEFe-71" value="Obtener detalle de consulta principal del paciente" style="ellipse;whiteSpace=wrap;html=1;" parent="1" vertex="1">
          <mxGeometry x="1500" y="90" width="140" height="70" as="geometry" />
        </mxCell>
        <mxCell id="q2o7Ql81qNlWxovkUEFe-72" value="Registro de Antecedentes personales" style="ellipse;whiteSpace=wrap;html=1;" parent="1" vertex="1">
          <mxGeometry x="1320" y="180" width="140" height="70" as="geometry" />
        </mxCell>
        <mxCell id="q2o7Ql81qNlWxovkUEFe-73" value="Consulta de Datos de Violencia" style="ellipse;whiteSpace=wrap;html=1;" parent="1" vertex="1">
          <mxGeometry x="1320" y="270" width="140" height="70" as="geometry" />
        </mxCell>
        <mxCell id="q2o7Ql81qNlWxovkUEFe-74" value="Registrar antecedentes laborales" style="ellipse;whiteSpace=wrap;html=1;" parent="1" vertex="1">
          <mxGeometry x="1320" y="360" width="140" height="70" as="geometry" />
        </mxCell>
        <mxCell id="q2o7Ql81qNlWxovkUEFe-75" value="Registrar información laboral" style="ellipse;whiteSpace=wrap;html=1;" parent="1" vertex="1">
          <mxGeometry x="1320" y="445" width="140" height="70" as="geometry" />
        </mxCell>
        <mxCell id="q2o7Ql81qNlWxovkUEFe-76" value="Registro de Examen Físico" style="ellipse;whiteSpace=wrap;html=1;" parent="1" vertex="1">
          <mxGeometry x="1320" y="530" width="140" height="70" as="geometry" />
        </mxCell>
        <mxCell id="q2o7Ql81qNlWxovkUEFe-77" value="Obtener datos de Educación (Servicio web MINED)" style="ellipse;whiteSpace=wrap;html=1;" parent="1" vertex="1">
          <mxGeometry x="1320" y="610" width="140" height="70" as="geometry" />
        </mxCell>
        <mxCell id="q2o7Ql81qNlWxovkUEFe-78" value="Consultar datos personales del paciente (Consulta Externa)" style="ellipse;whiteSpace=wrap;html=1;" parent="1" vertex="1">
          <mxGeometry x="1320" y="690" width="140" height="70" as="geometry" />
        </mxCell>
        <mxCell id="q2o7Ql81qNlWxovkUEFe-79" value="Registro de Antecedentes Familiares" style="ellipse;whiteSpace=wrap;html=1;" parent="1" vertex="1">
          <mxGeometry x="990" y="80" width="140" height="70" as="geometry" />
        </mxCell>
        <mxCell id="q2o7Ql81qNlWxovkUEFe-80" value="Registro de Antecedentes patológicos" style="ellipse;whiteSpace=wrap;html=1;" parent="1" vertex="1">
          <mxGeometry x="670" y="80" width="140" height="70" as="geometry" />
        </mxCell>
        <mxCell id="q2o7Ql81qNlWxovkUEFe-81" value="Registro de Antecedentes no &lt;br&gt;patológicos" style="ellipse;whiteSpace=wrap;html=1;" parent="1" vertex="1">
          <mxGeometry x="510" y="80" width="140" height="70" as="geometry" />
        </mxCell>
        <mxCell id="q2o7Ql81qNlWxovkUEFe-82" value="Consultar Datos de Discapacidad" style="ellipse;whiteSpace=wrap;html=1;" parent="1" vertex="1">
          <mxGeometry x="830" y="80" width="140" height="70" as="geometry" />
        </mxCell>
        <mxCell id="q2o7Ql81qNlWxovkUEFe-83" value="Consulta de Esquema de Vacunación (SIPAI)" style="ellipse;whiteSpace=wrap;html=1;" parent="1" vertex="1">
          <mxGeometry x="344" y="80" width="140" height="70" as="geometry" />
        </mxCell>
        <mxCell id="q2o7Ql81qNlWxovkUEFe-84" value="Registro de Historia Socio Economica" style="ellipse;whiteSpace=wrap;html=1;" parent="1" vertex="1">
          <mxGeometry x="1140" y="80" width="140" height="70" as="geometry" />
        </mxCell>
        <mxCell id="q2o7Ql81qNlWxovkUEFe-85" value="Crear Historia Clínica" style="ellipse;whiteSpace=wrap;html=1;fillColor=#dae8fc;strokeColor=#6c8ebf;" parent="1" vertex="1">
          <mxGeometry x="750" y="515" width="140" height="70" as="geometry" />
        </mxCell>
        <mxCell id="q2o7Ql81qNlWxovkUEFe-86" value="Buscar datos de consulta principal del paciente&amp;nbsp;" style="ellipse;whiteSpace=wrap;html=1;" parent="1" vertex="1">
          <mxGeometry x="1300" y="80" width="140" height="70" as="geometry" />
        </mxCell>
        <mxCell id="q2o7Ql81qNlWxovkUEFe-87" value="Obtener detalle de consulta principal del paciente" style="ellipse;whiteSpace=wrap;html=1;" parent="1" vertex="1">
          <mxGeometry x="1500" y="90" width="140" height="70" as="geometry" />
        </mxCell>
        <mxCell id="q2o7Ql81qNlWxovkUEFe-88" value="Registro de Antecedentes personales" style="ellipse;whiteSpace=wrap;html=1;" parent="1" vertex="1">
          <mxGeometry x="1320" y="180" width="140" height="70" as="geometry" />
        </mxCell>
        <mxCell id="q2o7Ql81qNlWxovkUEFe-89" value="Consulta de Datos de Violencia" style="ellipse;whiteSpace=wrap;html=1;" parent="1" vertex="1">
          <mxGeometry x="1320" y="270" width="140" height="70" as="geometry" />
        </mxCell>
        <mxCell id="q2o7Ql81qNlWxovkUEFe-90" value="Registrar antecedentes laborales" style="ellipse;whiteSpace=wrap;html=1;" parent="1" vertex="1">
          <mxGeometry x="1320" y="360" width="140" height="70" as="geometry" />
        </mxCell>
        <mxCell id="q2o7Ql81qNlWxovkUEFe-91" value="Registrar información laboral" style="ellipse;whiteSpace=wrap;html=1;" parent="1" vertex="1">
          <mxGeometry x="1320" y="445" width="140" height="70" as="geometry" />
        </mxCell>
        <mxCell id="q2o7Ql81qNlWxovkUEFe-92" value="Registro de Examen Físico" style="ellipse;whiteSpace=wrap;html=1;" parent="1" vertex="1">
          <mxGeometry x="1320" y="530" width="140" height="70" as="geometry" />
        </mxCell>
        <mxCell id="q2o7Ql81qNlWxovkUEFe-93" value="Obtener datos de Educación (Servicio web MINED)" style="ellipse;whiteSpace=wrap;html=1;" parent="1" vertex="1">
          <mxGeometry x="1320" y="610" width="140" height="70" as="geometry" />
        </mxCell>
        <mxCell id="q2o7Ql81qNlWxovkUEFe-94" value="Consultar datos personales del paciente (Consulta Externa)" style="ellipse;whiteSpace=wrap;html=1;" parent="1" vertex="1">
          <mxGeometry x="1320" y="690" width="140" height="70" as="geometry" />
        </mxCell>
        <mxCell id="q2o7Ql81qNlWxovkUEFe-95" value="Registro de antecedentes gineco-obstétricos" style="ellipse;whiteSpace=wrap;html=1;" parent="1" vertex="1">
          <mxGeometry x="1320" y="770" width="140" height="70" as="geometry" />
        </mxCell>
        <mxCell id="q2o7Ql81qNlWxovkUEFe-96" value="Registro de Alertas" style="ellipse;whiteSpace=wrap;html=1;" parent="1" vertex="1">
          <mxGeometry x="1320" y="850" width="140" height="70" as="geometry" />
        </mxCell>
      </root>
    </mxGraphModel>
  </diagram>
  <diagram id="-fVd3KVLmaRdUvOlyrkS" name="CU Pediatrica">
    <mxGraphModel dx="1422" dy="794" grid="1" gridSize="10" guides="1" tooltips="1" connect="1" arrows="1" fold="1" page="1" pageScale="1" pageWidth="827" pageHeight="1169" math="0" shadow="0">
      <root>
        <mxCell id="0" />
        <mxCell id="1" parent="0" />
        <mxCell id="CUpeZdv3KyQpM5lxroLM-1" value="Crear Historia Clínica" style="ellipse;whiteSpace=wrap;html=1;fillColor=#dae8fc;strokeColor=#6c8ebf;" parent="1" vertex="1">
          <mxGeometry x="344" y="190" width="140" height="70" as="geometry" />
        </mxCell>
        <mxCell id="CUpeZdv3KyQpM5lxroLM-2" value="Registrar Historia Clínica Pediatrica" style="ellipse;whiteSpace=wrap;html=1;fillColor=#dae8fc;strokeColor=#6c8ebf;" parent="1" vertex="1">
          <mxGeometry x="344" y="380" width="140" height="70" as="geometry" />
        </mxCell>
        <mxCell id="CUpeZdv3KyQpM5lxroLM-3" value="Extends" style="endArrow=block;endSize=16;endFill=0;html=1;rounded=0;exitX=0.5;exitY=1;exitDx=0;exitDy=0;" parent="1" source="CUpeZdv3KyQpM5lxroLM-1" target="CUpeZdv3KyQpM5lxroLM-2" edge="1">
          <mxGeometry width="160" relative="1" as="geometry">
            <mxPoint x="330" y="310" as="sourcePoint" />
            <mxPoint x="490" y="310" as="targetPoint" />
          </mxGeometry>
        </mxCell>
        <mxCell id="CUpeZdv3KyQpM5lxroLM-4" value="Registro de antecedentes del parto" style="ellipse;whiteSpace=wrap;html=1;" parent="1" vertex="1">
          <mxGeometry x="40" y="410" width="140" height="70" as="geometry" />
        </mxCell>
        <mxCell id="CUpeZdv3KyQpM5lxroLM-5" value="Registro de antecedentes postnatales" style="ellipse;whiteSpace=wrap;html=1;" parent="1" vertex="1">
          <mxGeometry x="70" y="515" width="140" height="70" as="geometry" />
        </mxCell>
        <mxCell id="CUpeZdv3KyQpM5lxroLM-6" value="Registro de alimentación" style="ellipse;whiteSpace=wrap;html=1;" parent="1" vertex="1">
          <mxGeometry x="240" y="570" width="140" height="70" as="geometry" />
        </mxCell>
        <mxCell id="CUpeZdv3KyQpM5lxroLM-7" value="Registro de Desarrollo Psicomotor" style="ellipse;whiteSpace=wrap;html=1;" parent="1" vertex="1">
          <mxGeometry x="660" y="380" width="140" height="70" as="geometry" />
        </mxCell>
        <mxCell id="CUpeZdv3KyQpM5lxroLM-8" value="Registro de Antecedentes patológicos" style="ellipse;whiteSpace=wrap;html=1;" parent="1" vertex="1">
          <mxGeometry x="610" y="500" width="140" height="70" as="geometry" />
        </mxCell>
        <mxCell id="CUpeZdv3KyQpM5lxroLM-9" value="Registro de Antecedentes no &lt;br&gt;patológicos" style="ellipse;whiteSpace=wrap;html=1;" parent="1" vertex="1">
          <mxGeometry x="50" y="310" width="140" height="70" as="geometry" />
        </mxCell>
        <mxCell id="CUpeZdv3KyQpM5lxroLM-10" value="Consulta de Esquema de Vacunación (SIPAI)" style="ellipse;whiteSpace=wrap;html=1;" parent="1" vertex="1">
          <mxGeometry x="60" y="190" width="140" height="70" as="geometry" />
        </mxCell>
        <mxCell id="CUpeZdv3KyQpM5lxroLM-11" value="Registro de Antecedentes personales" style="ellipse;whiteSpace=wrap;html=1;" parent="1" vertex="1">
          <mxGeometry x="660" y="270" width="140" height="70" as="geometry" />
        </mxCell>
        <mxCell id="CUpeZdv3KyQpM5lxroLM-12" value="Registro de Examen Físico" style="ellipse;whiteSpace=wrap;html=1;" parent="1" vertex="1">
          <mxGeometry x="430" y="560" width="140" height="70" as="geometry" />
        </mxCell>
        <mxCell id="CUpeZdv3KyQpM5lxroLM-13" value="Extends" style="endArrow=block;endSize=16;endFill=0;html=1;rounded=0;" parent="1" source="CUpeZdv3KyQpM5lxroLM-2" target="CUpeZdv3KyQpM5lxroLM-10" edge="1">
          <mxGeometry width="160" relative="1" as="geometry">
            <mxPoint x="660" y="310" as="sourcePoint" />
            <mxPoint x="820" y="310" as="targetPoint" />
          </mxGeometry>
        </mxCell>
        <mxCell id="CUpeZdv3KyQpM5lxroLM-14" value="Use" style="endArrow=open;endSize=12;dashed=1;html=1;rounded=0;exitX=0;exitY=0.5;exitDx=0;exitDy=0;" parent="1" source="CUpeZdv3KyQpM5lxroLM-2" target="CUpeZdv3KyQpM5lxroLM-9" edge="1">
          <mxGeometry width="160" relative="1" as="geometry">
            <mxPoint x="220" y="380" as="sourcePoint" />
            <mxPoint x="400" y="434.5" as="targetPoint" />
          </mxGeometry>
        </mxCell>
        <mxCell id="CUpeZdv3KyQpM5lxroLM-15" value="Use" style="endArrow=open;endSize=12;dashed=1;html=1;rounded=0;" parent="1" source="CUpeZdv3KyQpM5lxroLM-2" target="CUpeZdv3KyQpM5lxroLM-4" edge="1">
          <mxGeometry width="160" relative="1" as="geometry">
            <mxPoint x="340" y="445" as="sourcePoint" />
            <mxPoint x="179.05630414125108" y="393.7906422267615" as="targetPoint" />
          </mxGeometry>
        </mxCell>
        <mxCell id="CUpeZdv3KyQpM5lxroLM-16" value="Use" style="endArrow=open;endSize=12;dashed=1;html=1;rounded=0;" parent="1" source="CUpeZdv3KyQpM5lxroLM-2" target="CUpeZdv3KyQpM5lxroLM-5" edge="1">
          <mxGeometry width="160" relative="1" as="geometry">
            <mxPoint x="350" y="455" as="sourcePoint" />
            <mxPoint x="193.72565342238477" y="490.516896949458" as="targetPoint" />
          </mxGeometry>
        </mxCell>
        <mxCell id="CUpeZdv3KyQpM5lxroLM-17" value="Use" style="endArrow=open;endSize=12;dashed=1;html=1;rounded=0;" parent="1" source="CUpeZdv3KyQpM5lxroLM-2" target="CUpeZdv3KyQpM5lxroLM-6" edge="1">
          <mxGeometry width="160" relative="1" as="geometry">
            <mxPoint x="387.30278744141424" y="454.80484268717646" as="sourcePoint" />
            <mxPoint x="470" y="670" as="targetPoint" />
          </mxGeometry>
        </mxCell>
        <mxCell id="CUpeZdv3KyQpM5lxroLM-18" value="Use" style="endArrow=open;endSize=12;dashed=1;html=1;rounded=0;" parent="1" source="CUpeZdv3KyQpM5lxroLM-2" target="CUpeZdv3KyQpM5lxroLM-11" edge="1">
          <mxGeometry width="160" relative="1" as="geometry">
            <mxPoint x="660" y="310" as="sourcePoint" />
            <mxPoint x="820" y="310" as="targetPoint" />
          </mxGeometry>
        </mxCell>
        <mxCell id="CUpeZdv3KyQpM5lxroLM-19" value="Use" style="endArrow=open;endSize=12;dashed=1;html=1;rounded=0;" parent="1" source="CUpeZdv3KyQpM5lxroLM-2" target="CUpeZdv3KyQpM5lxroLM-7" edge="1">
          <mxGeometry width="160" relative="1" as="geometry">
            <mxPoint x="660" y="310" as="sourcePoint" />
            <mxPoint x="820" y="310" as="targetPoint" />
          </mxGeometry>
        </mxCell>
        <mxCell id="CUpeZdv3KyQpM5lxroLM-20" value="Use" style="endArrow=open;endSize=12;dashed=1;html=1;rounded=0;" parent="1" source="CUpeZdv3KyQpM5lxroLM-2" target="CUpeZdv3KyQpM5lxroLM-12" edge="1">
          <mxGeometry width="160" relative="1" as="geometry">
            <mxPoint x="397.30278744141424" y="464.80484268717646" as="sourcePoint" />
            <mxPoint x="236.7043214682567" y="595.1973458163725" as="targetPoint" />
          </mxGeometry>
        </mxCell>
        <mxCell id="CUpeZdv3KyQpM5lxroLM-21" value="Use" style="endArrow=open;endSize=12;dashed=1;html=1;rounded=0;" parent="1" source="CUpeZdv3KyQpM5lxroLM-2" target="CUpeZdv3KyQpM5lxroLM-8" edge="1">
          <mxGeometry width="160" relative="1" as="geometry">
            <mxPoint x="407.30278744141424" y="474.80484268717646" as="sourcePoint" />
            <mxPoint x="246.7043214682567" y="605.1973458163725" as="targetPoint" />
          </mxGeometry>
        </mxCell>
        <mxCell id="CUpeZdv3KyQpM5lxroLM-22" value="Registro de Historia Socio Economica" style="ellipse;whiteSpace=wrap;html=1;" parent="1" vertex="1">
          <mxGeometry x="640" y="180" width="140" height="70" as="geometry" />
        </mxCell>
        <mxCell id="CUpeZdv3KyQpM5lxroLM-23" value="Use" style="endArrow=open;endSize=12;dashed=1;html=1;rounded=0;" parent="1" source="CUpeZdv3KyQpM5lxroLM-2" target="CUpeZdv3KyQpM5lxroLM-22" edge="1">
          <mxGeometry width="160" relative="1" as="geometry">
            <mxPoint x="660" y="410" as="sourcePoint" />
            <mxPoint x="820" y="410" as="targetPoint" />
          </mxGeometry>
        </mxCell>
        <mxCell id="Mh0Tx1JKxdqRzZjA9txm-2" value="" style="edgeStyle=orthogonalEdgeStyle;rounded=0;orthogonalLoop=1;jettySize=auto;html=1;" parent="1" source="Mh0Tx1JKxdqRzZjA9txm-1" target="CUpeZdv3KyQpM5lxroLM-1" edge="1">
          <mxGeometry relative="1" as="geometry" />
        </mxCell>
        <mxCell id="Mh0Tx1JKxdqRzZjA9txm-3" value="" style="edgeStyle=orthogonalEdgeStyle;rounded=0;orthogonalLoop=1;jettySize=auto;html=1;" parent="1" source="Mh0Tx1JKxdqRzZjA9txm-1" target="CUpeZdv3KyQpM5lxroLM-1" edge="1">
          <mxGeometry relative="1" as="geometry" />
        </mxCell>
        <mxCell id="Mh0Tx1JKxdqRzZjA9txm-1" value="Usuario (Médico / Estadístico)" style="shape=umlActor;verticalLabelPosition=bottom;verticalAlign=top;html=1;" parent="1" vertex="1">
          <mxGeometry x="399" y="40" width="30" height="60" as="geometry" />
        </mxCell>
      </root>
    </mxGraphModel>
  </diagram>
  <diagram id="4C3cebTbAoKSenme1o2e" name="CU Adolecentes">
    <mxGraphModel dx="1422" dy="794" grid="1" gridSize="10" guides="1" tooltips="1" connect="1" arrows="1" fold="1" page="1" pageScale="1" pageWidth="827" pageHeight="1169" math="0" shadow="0">
      <root>
        <mxCell id="0" />
        <mxCell id="1" parent="0" />
        <mxCell id="7r3PYe8GUwK5cai9D-T6-1" value="Crear Historia Clínica" style="ellipse;whiteSpace=wrap;html=1;fillColor=#dae8fc;strokeColor=#6c8ebf;" parent="1" vertex="1">
          <mxGeometry x="360" y="170" width="140" height="70" as="geometry" />
        </mxCell>
        <mxCell id="7r3PYe8GUwK5cai9D-T6-2" value="Registrar Historia Clínica de Adolescentes" style="ellipse;whiteSpace=wrap;html=1;fillColor=#dae8fc;strokeColor=#6c8ebf;" parent="1" vertex="1">
          <mxGeometry x="360" y="430" width="140" height="70" as="geometry" />
        </mxCell>
        <mxCell id="7r3PYe8GUwK5cai9D-T6-3" value="Registro de Antecedentes Familiares" style="ellipse;whiteSpace=wrap;html=1;" parent="1" vertex="1">
          <mxGeometry x="20" y="430" width="140" height="70" as="geometry" />
        </mxCell>
        <mxCell id="7r3PYe8GUwK5cai9D-T6-4" value="Registro de Antecedentes personales" style="ellipse;whiteSpace=wrap;html=1;" parent="1" vertex="1">
          <mxGeometry x="680" y="330" width="140" height="70" as="geometry" />
        </mxCell>
        <mxCell id="7r3PYe8GUwK5cai9D-T6-5" value="Registro de Antecedentes patológicos" style="ellipse;whiteSpace=wrap;html=1;" parent="1" vertex="1">
          <mxGeometry x="680" y="410" width="140" height="70" as="geometry" />
        </mxCell>
        <mxCell id="7r3PYe8GUwK5cai9D-T6-6" value="Registro de Antecedentes no &lt;br&gt;patológicos" style="ellipse;whiteSpace=wrap;html=1;" parent="1" vertex="1">
          <mxGeometry x="680" y="660" width="140" height="70" as="geometry" />
        </mxCell>
        <mxCell id="7r3PYe8GUwK5cai9D-T6-7" value="Registro de Historia Socio Economica" style="ellipse;whiteSpace=wrap;html=1;" parent="1" vertex="1">
          <mxGeometry x="20" y="520" width="140" height="70" as="geometry" />
        </mxCell>
        <mxCell id="7r3PYe8GUwK5cai9D-T6-8" value="Registro de Examen Físico" style="ellipse;whiteSpace=wrap;html=1;" parent="1" vertex="1">
          <mxGeometry x="680" y="570" width="140" height="70" as="geometry" />
        </mxCell>
        <mxCell id="7r3PYe8GUwK5cai9D-T6-9" value="Consultar datos personales del paciente (Web Service Persona)" style="ellipse;whiteSpace=wrap;html=1;" parent="1" vertex="1">
          <mxGeometry x="680" y="240" width="140" height="70" as="geometry" />
        </mxCell>
        <mxCell id="7r3PYe8GUwK5cai9D-T6-10" value="Buscar datos de consulta principal del paciente&amp;nbsp;" style="ellipse;whiteSpace=wrap;html=1;" parent="1" vertex="1">
          <mxGeometry x="20" y="350" width="140" height="70" as="geometry" />
        </mxCell>
        <mxCell id="7r3PYe8GUwK5cai9D-T6-11" value="Obtener detalle de consulta principal del paciente" style="ellipse;whiteSpace=wrap;html=1;" parent="1" vertex="1">
          <mxGeometry x="20" y="270" width="140" height="70" as="geometry" />
        </mxCell>
        <mxCell id="7r3PYe8GUwK5cai9D-T6-12" value="Registrar datos de Educación (Servicio web MINED)" style="ellipse;whiteSpace=wrap;html=1;" parent="1" vertex="1">
          <mxGeometry x="680" y="490" width="140" height="70" as="geometry" />
        </mxCell>
        <mxCell id="7r3PYe8GUwK5cai9D-T6-13" value="Registrar información laboral" style="ellipse;whiteSpace=wrap;html=1;" parent="1" vertex="1">
          <mxGeometry x="90" y="690" width="140" height="70" as="geometry" />
        </mxCell>
        <mxCell id="7r3PYe8GUwK5cai9D-T6-14" value="Registro de Datos de Vida Social" style="ellipse;whiteSpace=wrap;html=1;" parent="1" vertex="1">
          <mxGeometry x="20" y="610" width="140" height="70" as="geometry" />
        </mxCell>
        <mxCell id="7r3PYe8GUwK5cai9D-T6-15" value="&lt;br&gt;Registro de Datos de Sexualidad&lt;br&gt;" style="ellipse;whiteSpace=wrap;html=1;" parent="1" vertex="1">
          <mxGeometry x="170" y="760" width="140" height="70" as="geometry" />
        </mxCell>
        <mxCell id="7r3PYe8GUwK5cai9D-T6-16" value="Registro de situación psico-emocional" style="ellipse;whiteSpace=wrap;html=1;" parent="1" vertex="1">
          <mxGeometry x="310" y="810" width="140" height="70" as="geometry" />
        </mxCell>
        <mxCell id="7r3PYe8GUwK5cai9D-T6-17" value="Consulta de antecedentes de Historias Clínicas" style="ellipse;whiteSpace=wrap;html=1;" parent="1" vertex="1">
          <mxGeometry x="460" y="810" width="140" height="70" as="geometry" />
        </mxCell>
        <mxCell id="7r3PYe8GUwK5cai9D-T6-18" value="Registro de antecedentes gineco-obstétricos" style="ellipse;whiteSpace=wrap;html=1;" parent="1" vertex="1">
          <mxGeometry x="590" y="760" width="140" height="70" as="geometry" />
        </mxCell>
        <mxCell id="7r3PYe8GUwK5cai9D-T6-19" value="Extends" style="endArrow=block;endSize=16;endFill=0;html=1;rounded=0;" parent="1" source="7r3PYe8GUwK5cai9D-T6-1" target="7r3PYe8GUwK5cai9D-T6-2" edge="1">
          <mxGeometry width="160" relative="1" as="geometry">
            <mxPoint x="600" y="410" as="sourcePoint" />
            <mxPoint x="760" y="410" as="targetPoint" />
          </mxGeometry>
        </mxCell>
        <mxCell id="7r3PYe8GUwK5cai9D-T6-20" value="Use" style="endArrow=open;endSize=12;dashed=1;html=1;rounded=0;" parent="1" source="7r3PYe8GUwK5cai9D-T6-2" target="7r3PYe8GUwK5cai9D-T6-4" edge="1">
          <mxGeometry width="160" relative="1" as="geometry">
            <mxPoint x="600" y="410" as="sourcePoint" />
            <mxPoint x="760" y="410" as="targetPoint" />
          </mxGeometry>
        </mxCell>
        <mxCell id="7r3PYe8GUwK5cai9D-T6-21" value="Use" style="endArrow=open;endSize=12;dashed=1;html=1;rounded=0;" parent="1" source="7r3PYe8GUwK5cai9D-T6-2" target="7r3PYe8GUwK5cai9D-T6-5" edge="1">
          <mxGeometry width="160" relative="1" as="geometry">
            <mxPoint x="488.0636473074733" y="449.55453966074947" as="sourcePoint" />
            <mxPoint x="712.0244710696506" y="330.4869997442481" as="targetPoint" />
          </mxGeometry>
        </mxCell>
        <mxCell id="7r3PYe8GUwK5cai9D-T6-22" value="Use" style="endArrow=open;endSize=12;dashed=1;html=1;rounded=0;" parent="1" source="7r3PYe8GUwK5cai9D-T6-2" target="7r3PYe8GUwK5cai9D-T6-8" edge="1">
          <mxGeometry width="160" relative="1" as="geometry">
            <mxPoint x="518.0636473074733" y="479.55453966074947" as="sourcePoint" />
            <mxPoint x="742.0244710696506" y="360.4869997442481" as="targetPoint" />
          </mxGeometry>
        </mxCell>
        <mxCell id="7r3PYe8GUwK5cai9D-T6-23" value="Extends" style="endArrow=block;endSize=16;endFill=0;html=1;rounded=0;" parent="1" source="7r3PYe8GUwK5cai9D-T6-2" target="7r3PYe8GUwK5cai9D-T6-12" edge="1">
          <mxGeometry width="160" relative="1" as="geometry">
            <mxPoint x="600" y="410" as="sourcePoint" />
            <mxPoint x="760" y="410" as="targetPoint" />
          </mxGeometry>
        </mxCell>
        <mxCell id="7r3PYe8GUwK5cai9D-T6-24" value="Use" style="endArrow=open;endSize=12;dashed=1;html=1;rounded=0;entryX=0.036;entryY=0.329;entryDx=0;entryDy=0;entryPerimeter=0;" parent="1" source="7r3PYe8GUwK5cai9D-T6-2" target="7r3PYe8GUwK5cai9D-T6-6" edge="1">
          <mxGeometry width="160" relative="1" as="geometry">
            <mxPoint x="488.0636473074733" y="500.44546033925053" as="sourcePoint" />
            <mxPoint x="712.0244710696506" y="619.5130002557519" as="targetPoint" />
          </mxGeometry>
        </mxCell>
        <mxCell id="7r3PYe8GUwK5cai9D-T6-25" value="Use" style="endArrow=open;endSize=12;dashed=1;html=1;rounded=0;" parent="1" source="7r3PYe8GUwK5cai9D-T6-2" target="7r3PYe8GUwK5cai9D-T6-18" edge="1">
          <mxGeometry width="160" relative="1" as="geometry">
            <mxPoint x="498.0636473074733" y="510.44546033925053" as="sourcePoint" />
            <mxPoint x="722.0244710696506" y="629.5130002557519" as="targetPoint" />
          </mxGeometry>
        </mxCell>
        <mxCell id="7r3PYe8GUwK5cai9D-T6-26" value="Use" style="endArrow=open;endSize=12;dashed=1;html=1;rounded=0;entryX=0.5;entryY=0;entryDx=0;entryDy=0;" parent="1" source="7r3PYe8GUwK5cai9D-T6-2" target="7r3PYe8GUwK5cai9D-T6-17" edge="1">
          <mxGeometry width="160" relative="1" as="geometry">
            <mxPoint x="508.0636473074733" y="520.4454603392505" as="sourcePoint" />
            <mxPoint x="732.0244710696506" y="639.5130002557519" as="targetPoint" />
          </mxGeometry>
        </mxCell>
        <mxCell id="7r3PYe8GUwK5cai9D-T6-27" value="Use" style="endArrow=open;endSize=12;dashed=1;html=1;rounded=0;" parent="1" source="7r3PYe8GUwK5cai9D-T6-2" target="7r3PYe8GUwK5cai9D-T6-16" edge="1">
          <mxGeometry width="160" relative="1" as="geometry">
            <mxPoint x="518.0636473074733" y="530.4454603392505" as="sourcePoint" />
            <mxPoint x="742.0244710696506" y="649.5130002557519" as="targetPoint" />
          </mxGeometry>
        </mxCell>
        <mxCell id="7r3PYe8GUwK5cai9D-T6-28" value="Use" style="endArrow=open;endSize=12;dashed=1;html=1;rounded=0;" parent="1" source="7r3PYe8GUwK5cai9D-T6-2" target="7r3PYe8GUwK5cai9D-T6-15" edge="1">
          <mxGeometry width="160" relative="1" as="geometry">
            <mxPoint x="528.0636473074733" y="540.4454603392505" as="sourcePoint" />
            <mxPoint x="752.0244710696506" y="659.5130002557519" as="targetPoint" />
          </mxGeometry>
        </mxCell>
        <mxCell id="7r3PYe8GUwK5cai9D-T6-29" value="Use" style="endArrow=open;endSize=12;dashed=1;html=1;rounded=0;" parent="1" source="7r3PYe8GUwK5cai9D-T6-2" target="7r3PYe8GUwK5cai9D-T6-13" edge="1">
          <mxGeometry width="160" relative="1" as="geometry">
            <mxPoint x="538.0636473074733" y="550.4454603392505" as="sourcePoint" />
            <mxPoint x="762.0244710696506" y="669.5130002557519" as="targetPoint" />
          </mxGeometry>
        </mxCell>
        <mxCell id="7r3PYe8GUwK5cai9D-T6-30" value="Use" style="endArrow=open;endSize=12;dashed=1;html=1;rounded=0;" parent="1" source="7r3PYe8GUwK5cai9D-T6-2" target="7r3PYe8GUwK5cai9D-T6-14" edge="1">
          <mxGeometry width="160" relative="1" as="geometry">
            <mxPoint x="558.0636473074733" y="570.4454603392505" as="sourcePoint" />
            <mxPoint x="782.0244710696506" y="689.5130002557519" as="targetPoint" />
          </mxGeometry>
        </mxCell>
        <mxCell id="7r3PYe8GUwK5cai9D-T6-31" value="Use" style="endArrow=open;endSize=12;dashed=1;html=1;rounded=0;" parent="1" source="7r3PYe8GUwK5cai9D-T6-2" target="7r3PYe8GUwK5cai9D-T6-7" edge="1">
          <mxGeometry width="160" relative="1" as="geometry">
            <mxPoint x="568.0636473074733" y="580.4454603392505" as="sourcePoint" />
            <mxPoint x="792.0244710696506" y="699.5130002557519" as="targetPoint" />
          </mxGeometry>
        </mxCell>
        <mxCell id="7r3PYe8GUwK5cai9D-T6-32" value="Use" style="endArrow=open;endSize=12;dashed=1;html=1;rounded=0;" parent="1" source="7r3PYe8GUwK5cai9D-T6-2" target="7r3PYe8GUwK5cai9D-T6-3" edge="1">
          <mxGeometry width="160" relative="1" as="geometry">
            <mxPoint x="370" y="475" as="sourcePoint" />
            <mxPoint x="180" y="475" as="targetPoint" />
          </mxGeometry>
        </mxCell>
        <mxCell id="7r3PYe8GUwK5cai9D-T6-33" value="Use" style="endArrow=open;endSize=12;dashed=1;html=1;rounded=0;" parent="1" source="7r3PYe8GUwK5cai9D-T6-2" target="7r3PYe8GUwK5cai9D-T6-10" edge="1">
          <mxGeometry width="160" relative="1" as="geometry">
            <mxPoint x="376.8786370794512" y="459.8697856669846" as="sourcePoint" />
            <mxPoint x="172.98698750373" y="410.2695727281771" as="targetPoint" />
          </mxGeometry>
        </mxCell>
        <mxCell id="7r3PYe8GUwK5cai9D-T6-34" value="Use" style="endArrow=open;endSize=12;dashed=1;html=1;rounded=0;" parent="1" source="7r3PYe8GUwK5cai9D-T6-2" target="7r3PYe8GUwK5cai9D-T6-11" edge="1">
          <mxGeometry width="160" relative="1" as="geometry">
            <mxPoint x="386.8786370794512" y="469.8697856669846" as="sourcePoint" />
            <mxPoint x="182.98698750373" y="420.2695727281771" as="targetPoint" />
          </mxGeometry>
        </mxCell>
        <mxCell id="7r3PYe8GUwK5cai9D-T6-35" value="Extends" style="endArrow=block;endSize=16;endFill=0;html=1;rounded=0;" parent="1" source="7r3PYe8GUwK5cai9D-T6-2" target="7r3PYe8GUwK5cai9D-T6-9" edge="1">
          <mxGeometry width="160" relative="1" as="geometry">
            <mxPoint x="600" y="340" as="sourcePoint" />
            <mxPoint x="760" y="340" as="targetPoint" />
          </mxGeometry>
        </mxCell>
        <mxCell id="Wh6cuSgCFvNUm04ygIiq-2" value="" style="edgeStyle=orthogonalEdgeStyle;rounded=0;orthogonalLoop=1;jettySize=auto;html=1;" parent="1" target="7r3PYe8GUwK5cai9D-T6-1" edge="1">
          <mxGeometry relative="1" as="geometry">
            <mxPoint x="255" y="90" as="sourcePoint" />
          </mxGeometry>
        </mxCell>
        <mxCell id="Wh6cuSgCFvNUm04ygIiq-3" value="" style="edgeStyle=orthogonalEdgeStyle;rounded=0;orthogonalLoop=1;jettySize=auto;html=1;" parent="1" target="7r3PYe8GUwK5cai9D-T6-1" edge="1">
          <mxGeometry relative="1" as="geometry">
            <mxPoint x="255" y="90" as="sourcePoint" />
          </mxGeometry>
        </mxCell>
        <mxCell id="Wh6cuSgCFvNUm04ygIiq-4" value="Médico / Estadístico" style="shape=umlActor;verticalLabelPosition=bottom;verticalAlign=top;html=1;" parent="1" vertex="1">
          <mxGeometry x="225" y="60" width="30" height="60" as="geometry" />
        </mxCell>
      </root>
    </mxGraphModel>
  </diagram>
  <diagram id="xTmuxIDYwjTO3IkFVptJ" name="CU Adulto">
    <mxGraphModel dx="1422" dy="794" grid="1" gridSize="10" guides="1" tooltips="1" connect="1" arrows="1" fold="1" page="1" pageScale="1" pageWidth="827" pageHeight="1169" math="0" shadow="0">
      <root>
        <mxCell id="0" />
        <mxCell id="1" parent="0" />
        <mxCell id="qfKgodOLnRGeTgS5_nTH-1" value="Registrar Historia Clínica de Adultos" style="ellipse;whiteSpace=wrap;html=1;fillColor=#dae8fc;strokeColor=#6c8ebf;" parent="1" vertex="1">
          <mxGeometry x="350" y="420" width="140" height="70" as="geometry" />
        </mxCell>
        <mxCell id="qfKgodOLnRGeTgS5_nTH-2" value="Registro de Antecedentes Familiares" style="ellipse;whiteSpace=wrap;html=1;" parent="1" vertex="1">
          <mxGeometry x="670" y="410" width="140" height="70" as="geometry" />
        </mxCell>
        <mxCell id="qfKgodOLnRGeTgS5_nTH-3" value="Registro de Antecedentes patológicos" style="ellipse;whiteSpace=wrap;html=1;" parent="1" vertex="1">
          <mxGeometry x="660" y="570" width="140" height="70" as="geometry" />
        </mxCell>
        <mxCell id="qfKgodOLnRGeTgS5_nTH-4" value="Registro de Antecedentes no &lt;br&gt;patológicos" style="ellipse;whiteSpace=wrap;html=1;" parent="1" vertex="1">
          <mxGeometry x="20" y="440" width="140" height="70" as="geometry" />
        </mxCell>
        <mxCell id="qfKgodOLnRGeTgS5_nTH-5" value="Consulta de Esquema de Vacunación (SIPAI)" style="ellipse;whiteSpace=wrap;html=1;" parent="1" vertex="1">
          <mxGeometry x="30" y="360" width="140" height="70" as="geometry" />
        </mxCell>
        <mxCell id="qfKgodOLnRGeTgS5_nTH-6" value="Crear Historia Clínica" style="ellipse;whiteSpace=wrap;html=1;fillColor=#dae8fc;strokeColor=#6c8ebf;" parent="1" vertex="1">
          <mxGeometry x="350" y="250" width="140" height="70" as="geometry" />
        </mxCell>
        <mxCell id="qfKgodOLnRGeTgS5_nTH-7" value="Obtener detalle de consulta principal del paciente" style="ellipse;whiteSpace=wrap;html=1;" parent="1" vertex="1">
          <mxGeometry x="670" y="490" width="140" height="70" as="geometry" />
        </mxCell>
        <mxCell id="qfKgodOLnRGeTgS5_nTH-8" value="Registro de Antecedentes personales" style="ellipse;whiteSpace=wrap;html=1;" parent="1" vertex="1">
          <mxGeometry x="630" y="650" width="140" height="70" as="geometry" />
        </mxCell>
        <mxCell id="qfKgodOLnRGeTgS5_nTH-10" value="Registrar antecedentes laborales" style="ellipse;whiteSpace=wrap;html=1;" parent="1" vertex="1">
          <mxGeometry x="480" y="690" width="140" height="70" as="geometry" />
        </mxCell>
        <mxCell id="qfKgodOLnRGeTgS5_nTH-11" value="Registrar información laboral" style="ellipse;whiteSpace=wrap;html=1;" parent="1" vertex="1">
          <mxGeometry x="344" y="750" width="140" height="70" as="geometry" />
        </mxCell>
        <mxCell id="qfKgodOLnRGeTgS5_nTH-12" value="Registro de Examen Físico" style="ellipse;whiteSpace=wrap;html=1;" parent="1" vertex="1">
          <mxGeometry x="210" y="720" width="140" height="70" as="geometry" />
        </mxCell>
        <mxCell id="qfKgodOLnRGeTgS5_nTH-13" value="Obtener datos de Educación (Servicio web MINED)" style="ellipse;whiteSpace=wrap;html=1;" parent="1" vertex="1">
          <mxGeometry x="90" y="670" width="140" height="70" as="geometry" />
        </mxCell>
        <mxCell id="qfKgodOLnRGeTgS5_nTH-14" value="Consultar datos personales del paciente (Consulta Externa)" style="ellipse;whiteSpace=wrap;html=1;" parent="1" vertex="1">
          <mxGeometry x="30" y="600" width="140" height="70" as="geometry" />
        </mxCell>
        <mxCell id="qfKgodOLnRGeTgS5_nTH-15" value="Registro de antecedentes gineco-obstétricos" style="ellipse;whiteSpace=wrap;html=1;" parent="1" vertex="1">
          <mxGeometry x="20" y="515" width="140" height="70" as="geometry" />
        </mxCell>
        <mxCell id="qfKgodOLnRGeTgS5_nTH-16" value="Extends" style="endArrow=block;endSize=16;endFill=0;html=1;rounded=0;" parent="1" source="qfKgodOLnRGeTgS5_nTH-6" target="qfKgodOLnRGeTgS5_nTH-1" edge="1">
          <mxGeometry width="160" relative="1" as="geometry">
            <mxPoint x="710" y="410" as="sourcePoint" />
            <mxPoint x="870" y="410" as="targetPoint" />
          </mxGeometry>
        </mxCell>
        <mxCell id="qfKgodOLnRGeTgS5_nTH-18" value="Use" style="endArrow=open;endSize=12;dashed=1;html=1;rounded=0;" parent="1" source="qfKgodOLnRGeTgS5_nTH-1" target="qfKgodOLnRGeTgS5_nTH-7" edge="1">
          <mxGeometry width="160" relative="1" as="geometry">
            <mxPoint x="501.28688642806037" y="341.1795503793844" as="sourcePoint" />
            <mxPoint x="698.6255946173892" y="248.7732542554827" as="targetPoint" />
          </mxGeometry>
        </mxCell>
        <mxCell id="qfKgodOLnRGeTgS5_nTH-19" value="Use" style="endArrow=open;endSize=12;dashed=1;html=1;rounded=0;" parent="1" source="qfKgodOLnRGeTgS5_nTH-1" target="qfKgodOLnRGeTgS5_nTH-3" edge="1">
          <mxGeometry width="160" relative="1" as="geometry">
            <mxPoint x="521.2868864280604" y="361.1795503793844" as="sourcePoint" />
            <mxPoint x="718.6255946173892" y="268.7732542554827" as="targetPoint" />
          </mxGeometry>
        </mxCell>
        <mxCell id="qfKgodOLnRGeTgS5_nTH-20" value="Use" style="endArrow=open;endSize=12;dashed=1;html=1;rounded=0;" parent="1" source="qfKgodOLnRGeTgS5_nTH-1" target="qfKgodOLnRGeTgS5_nTH-8" edge="1">
          <mxGeometry width="160" relative="1" as="geometry">
            <mxPoint x="531.2868864280604" y="371.1795503793844" as="sourcePoint" />
            <mxPoint x="728.6255946173892" y="278.7732542554827" as="targetPoint" />
          </mxGeometry>
        </mxCell>
        <mxCell id="qfKgodOLnRGeTgS5_nTH-22" value="Use" style="endArrow=open;endSize=12;dashed=1;html=1;rounded=0;" parent="1" source="qfKgodOLnRGeTgS5_nTH-1" target="qfKgodOLnRGeTgS5_nTH-10" edge="1">
          <mxGeometry width="160" relative="1" as="geometry">
            <mxPoint x="551.2868864280604" y="391.1795503793844" as="sourcePoint" />
            <mxPoint x="748.6255946173892" y="298.7732542554827" as="targetPoint" />
          </mxGeometry>
        </mxCell>
        <mxCell id="qfKgodOLnRGeTgS5_nTH-23" value="Use" style="endArrow=open;endSize=12;dashed=1;html=1;rounded=0;" parent="1" source="qfKgodOLnRGeTgS5_nTH-1" target="qfKgodOLnRGeTgS5_nTH-2" edge="1">
          <mxGeometry width="160" relative="1" as="geometry">
            <mxPoint x="561.2868864280604" y="401.1795503793844" as="sourcePoint" />
            <mxPoint x="758.6255946173892" y="308.7732542554827" as="targetPoint" />
          </mxGeometry>
        </mxCell>
        <mxCell id="qfKgodOLnRGeTgS5_nTH-24" value="Use" style="endArrow=open;endSize=12;dashed=1;html=1;rounded=0;" parent="1" source="qfKgodOLnRGeTgS5_nTH-1" target="qfKgodOLnRGeTgS5_nTH-5" edge="1">
          <mxGeometry width="160" relative="1" as="geometry">
            <mxPoint x="571.2868864280604" y="411.1795503793844" as="sourcePoint" />
            <mxPoint x="768.6255946173892" y="318.7732542554827" as="targetPoint" />
          </mxGeometry>
        </mxCell>
        <mxCell id="qfKgodOLnRGeTgS5_nTH-25" value="Use" style="endArrow=open;endSize=12;dashed=1;html=1;rounded=0;" parent="1" source="qfKgodOLnRGeTgS5_nTH-1" target="qfKgodOLnRGeTgS5_nTH-4" edge="1">
          <mxGeometry width="160" relative="1" as="geometry">
            <mxPoint x="373.5" y="368.92999999999984" as="sourcePoint" />
            <mxPoint x="189.9727579337591" y="365.976364064192" as="targetPoint" />
          </mxGeometry>
        </mxCell>
        <mxCell id="qfKgodOLnRGeTgS5_nTH-26" value="Use" style="endArrow=open;endSize=12;dashed=1;html=1;rounded=0;exitX=0;exitY=1;exitDx=0;exitDy=0;" parent="1" source="qfKgodOLnRGeTgS5_nTH-1" target="qfKgodOLnRGeTgS5_nTH-15" edge="1">
          <mxGeometry width="160" relative="1" as="geometry">
            <mxPoint x="378.0329567193223" y="371.27947747204234" as="sourcePoint" />
            <mxPoint x="161.95357335981953" y="428.7077108119504" as="targetPoint" />
          </mxGeometry>
        </mxCell>
        <mxCell id="qfKgodOLnRGeTgS5_nTH-27" value="Use" style="endArrow=open;endSize=12;dashed=1;html=1;rounded=0;exitX=0.311;exitY=0.968;exitDx=0;exitDy=0;exitPerimeter=0;" parent="1" source="qfKgodOLnRGeTgS5_nTH-1" target="qfKgodOLnRGeTgS5_nTH-14" edge="1">
          <mxGeometry width="160" relative="1" as="geometry">
            <mxPoint x="388.0329567193223" y="381.27947747204234" as="sourcePoint" />
            <mxPoint x="171.95357335981953" y="438.7077108119504" as="targetPoint" />
          </mxGeometry>
        </mxCell>
        <mxCell id="qfKgodOLnRGeTgS5_nTH-28" value="Use" style="endArrow=open;endSize=12;dashed=1;html=1;rounded=0;exitX=0.411;exitY=1.018;exitDx=0;exitDy=0;exitPerimeter=0;" parent="1" source="qfKgodOLnRGeTgS5_nTH-1" target="qfKgodOLnRGeTgS5_nTH-13" edge="1">
          <mxGeometry width="160" relative="1" as="geometry">
            <mxPoint x="413.53999999999996" y="387.76" as="sourcePoint" />
            <mxPoint x="147.28159732443805" y="600.3770253817443" as="targetPoint" />
          </mxGeometry>
        </mxCell>
        <mxCell id="qfKgodOLnRGeTgS5_nTH-29" value="Use" style="endArrow=open;endSize=12;dashed=1;html=1;rounded=0;exitX=0.481;exitY=1.042;exitDx=0;exitDy=0;exitPerimeter=0;" parent="1" source="qfKgodOLnRGeTgS5_nTH-1" target="qfKgodOLnRGeTgS5_nTH-12" edge="1">
          <mxGeometry width="160" relative="1" as="geometry">
            <mxPoint x="430" y="370" as="sourcePoint" />
            <mxPoint x="159.15786124428018" y="683.1809053881861" as="targetPoint" />
          </mxGeometry>
        </mxCell>
        <mxCell id="qfKgodOLnRGeTgS5_nTH-30" value="Use" style="endArrow=open;endSize=12;dashed=1;html=1;rounded=0;exitX=0.5;exitY=1;exitDx=0;exitDy=0;" parent="1" source="qfKgodOLnRGeTgS5_nTH-1" target="qfKgodOLnRGeTgS5_nTH-11" edge="1">
          <mxGeometry width="160" relative="1" as="geometry">
            <mxPoint x="423.0225062474792" y="388.954987505042" as="sourcePoint" />
            <mxPoint x="246.9327241045262" y="741.0394241274391" as="targetPoint" />
          </mxGeometry>
        </mxCell>
        <mxCell id="b5D3nUAJnJkdpznzsz1p-1" value="(Médico / Estadístico)" style="shape=umlActor;verticalLabelPosition=bottom;verticalAlign=top;html=1;" parent="1" vertex="1">
          <mxGeometry x="405" y="70" width="30" height="60" as="geometry" />
        </mxCell>
        <mxCell id="j7k9YGbm_Ty1WiUdJ9p5-1" value="" style="edgeStyle=orthogonalEdgeStyle;rounded=0;orthogonalLoop=1;jettySize=auto;html=1;" parent="1" source="b5D3nUAJnJkdpznzsz1p-1" target="qfKgodOLnRGeTgS5_nTH-6" edge="1">
          <mxGeometry relative="1" as="geometry">
            <mxPoint x="500" y="160" as="sourcePoint" />
            <mxPoint x="414" y="210" as="targetPoint" />
          </mxGeometry>
        </mxCell>
      </root>
    </mxGraphModel>
  </diagram>
  <diagram id="a868ZrrPtARbr5dUg6G_" name="CU General del Modulo Pruebas Diagnosticas">
    <mxGraphModel dx="1422" dy="794" grid="1" gridSize="10" guides="1" tooltips="1" connect="1" arrows="1" fold="1" page="1" pageScale="1" pageWidth="827" pageHeight="1169" math="0" shadow="0">
      <root>
        <mxCell id="0" />
        <mxCell id="1" parent="0" />
        <mxCell id="Y_N0G_v6Ph_r53Tg-Ugn-1" value="Sistema" style="shape=umlActor;verticalLabelPosition=bottom;verticalAlign=top;html=1;" parent="1" vertex="1">
          <mxGeometry x="70" y="350" width="30" height="60" as="geometry" />
        </mxCell>
        <mxCell id="Y_N0G_v6Ph_r53Tg-Ugn-2" value="Doctor" style="shape=umlActor;verticalLabelPosition=bottom;verticalAlign=top;html=1;" parent="1" vertex="1">
          <mxGeometry x="970" y="150" width="30" height="60" as="geometry" />
        </mxCell>
        <mxCell id="Y_N0G_v6Ph_r53Tg-Ugn-3" value="Recepcionador&lt;br&gt;Lab/Imagen" style="shape=umlActor;verticalLabelPosition=bottom;verticalAlign=top;html=1;" parent="1" vertex="1">
          <mxGeometry x="970" y="300" width="30" height="60" as="geometry" />
        </mxCell>
        <mxCell id="Y_N0G_v6Ph_r53Tg-Ugn-4" value="Especialista&lt;br&gt;Lab/Imagen" style="shape=umlActor;verticalLabelPosition=bottom;verticalAlign=top;html=1;" parent="1" vertex="1">
          <mxGeometry x="970" y="450" width="30" height="60" as="geometry" />
        </mxCell>
        <mxCell id="Y_N0G_v6Ph_r53Tg-Ugn-5" value="Administrar Pruebas Diagnosticas" style="ellipse;whiteSpace=wrap;html=1;" parent="1" vertex="1">
          <mxGeometry x="180" y="350" width="140" height="70" as="geometry" />
        </mxCell>
        <mxCell id="Y_N0G_v6Ph_r53Tg-Ugn-6" value="" style="endArrow=open;endFill=1;endSize=12;html=1;rounded=0;entryX=0;entryY=0.5;entryDx=0;entryDy=0;" parent="1" target="Y_N0G_v6Ph_r53Tg-Ugn-5" edge="1">
          <mxGeometry width="160" relative="1" as="geometry">
            <mxPoint x="130.00000000000023" y="385" as="sourcePoint" />
            <mxPoint x="300" y="340" as="targetPoint" />
          </mxGeometry>
        </mxCell>
        <mxCell id="Y_N0G_v6Ph_r53Tg-Ugn-7" value="Enviar Notificacion" style="ellipse;whiteSpace=wrap;html=1;" parent="1" vertex="1">
          <mxGeometry x="410" y="200" width="140" height="70" as="geometry" />
        </mxCell>
        <mxCell id="Y_N0G_v6Ph_r53Tg-Ugn-8" value="Use" style="endArrow=open;endSize=12;dashed=1;html=1;rounded=0;exitX=0.5;exitY=0;exitDx=0;exitDy=0;" parent="1" source="Y_N0G_v6Ph_r53Tg-Ugn-5" target="Y_N0G_v6Ph_r53Tg-Ugn-7" edge="1">
          <mxGeometry width="160" relative="1" as="geometry">
            <mxPoint x="330" y="310" as="sourcePoint" />
            <mxPoint x="490" y="310" as="targetPoint" />
          </mxGeometry>
        </mxCell>
        <mxCell id="Y_N0G_v6Ph_r53Tg-Ugn-9" value="" style="endArrow=open;endFill=1;endSize=12;html=1;rounded=0;entryX=0;entryY=0.3333333333333333;entryDx=0;entryDy=0;entryPerimeter=0;exitX=1;exitY=0.5;exitDx=0;exitDy=0;fillColor=#f8cecc;strokeColor=#b85450;" parent="1" source="Y_N0G_v6Ph_r53Tg-Ugn-7" target="Y_N0G_v6Ph_r53Tg-Ugn-3" edge="1">
          <mxGeometry width="160" relative="1" as="geometry">
            <mxPoint x="530" y="210" as="sourcePoint" />
            <mxPoint x="700" y="240" as="targetPoint" />
          </mxGeometry>
        </mxCell>
        <mxCell id="Y_N0G_v6Ph_r53Tg-Ugn-10" value="" style="endArrow=open;endFill=1;endSize=12;html=1;rounded=0;fillColor=#f8cecc;strokeColor=#b85450;" parent="1" source="Y_N0G_v6Ph_r53Tg-Ugn-7" edge="1">
          <mxGeometry width="160" relative="1" as="geometry">
            <mxPoint x="530" y="180" as="sourcePoint" />
            <mxPoint x="960" y="170.00000000000023" as="targetPoint" />
          </mxGeometry>
        </mxCell>
        <mxCell id="Y_N0G_v6Ph_r53Tg-Ugn-11" value="" style="endArrow=open;endFill=1;endSize=12;html=1;rounded=0;exitX=1;exitY=0.714;exitDx=0;exitDy=0;exitPerimeter=0;fillColor=#f8cecc;strokeColor=#b85450;" parent="1" source="Y_N0G_v6Ph_r53Tg-Ugn-7" edge="1">
          <mxGeometry width="160" relative="1" as="geometry">
            <mxPoint x="530" y="230" as="sourcePoint" />
            <mxPoint x="960" y="480" as="targetPoint" />
          </mxGeometry>
        </mxCell>
        <mxCell id="Y_N0G_v6Ph_r53Tg-Ugn-12" value="Crear Solicitud de Examen" style="ellipse;whiteSpace=wrap;html=1;" parent="1" vertex="1">
          <mxGeometry x="400" y="290" width="140" height="70" as="geometry" />
        </mxCell>
        <mxCell id="Y_N0G_v6Ph_r53Tg-Ugn-13" value="Editar Solicitud de Examen" style="ellipse;whiteSpace=wrap;html=1;" parent="1" vertex="1">
          <mxGeometry x="400" y="400" width="140" height="70" as="geometry" />
        </mxCell>
        <mxCell id="Y_N0G_v6Ph_r53Tg-Ugn-14" value="Use" style="endArrow=open;endSize=12;dashed=1;html=1;rounded=0;entryX=0;entryY=0.5;entryDx=0;entryDy=0;" parent="1" target="Y_N0G_v6Ph_r53Tg-Ugn-12" edge="1">
          <mxGeometry width="160" relative="1" as="geometry">
            <mxPoint x="300" y="360" as="sourcePoint" />
            <mxPoint x="460" y="360" as="targetPoint" />
          </mxGeometry>
        </mxCell>
        <mxCell id="Y_N0G_v6Ph_r53Tg-Ugn-15" value="Use" style="endArrow=open;endSize=12;dashed=1;html=1;rounded=0;entryX=0;entryY=0.5;entryDx=0;entryDy=0;" parent="1" target="Y_N0G_v6Ph_r53Tg-Ugn-13" edge="1">
          <mxGeometry width="160" relative="1" as="geometry">
            <mxPoint x="320" y="380" as="sourcePoint" />
            <mxPoint x="480" y="380" as="targetPoint" />
          </mxGeometry>
        </mxCell>
        <mxCell id="Y_N0G_v6Ph_r53Tg-Ugn-16" value="" style="endArrow=open;endFill=1;endSize=12;html=1;rounded=0;" parent="1" source="Y_N0G_v6Ph_r53Tg-Ugn-13" edge="1">
          <mxGeometry width="160" relative="1" as="geometry">
            <mxPoint x="540" y="379.5" as="sourcePoint" />
            <mxPoint x="960" y="200" as="targetPoint" />
          </mxGeometry>
        </mxCell>
        <mxCell id="Y_N0G_v6Ph_r53Tg-Ugn-17" value="" style="endArrow=open;endFill=1;endSize=12;html=1;rounded=0;" parent="1" edge="1">
          <mxGeometry width="160" relative="1" as="geometry">
            <mxPoint x="540" y="290" as="sourcePoint" />
            <mxPoint x="960" y="190.00000000000023" as="targetPoint" />
          </mxGeometry>
        </mxCell>
        <mxCell id="Y_N0G_v6Ph_r53Tg-Ugn-18" value="Devolver Solicitud de Examen" style="ellipse;whiteSpace=wrap;html=1;" parent="1" vertex="1">
          <mxGeometry x="400" y="510" width="140" height="70" as="geometry" />
        </mxCell>
        <mxCell id="Y_N0G_v6Ph_r53Tg-Ugn-19" value="Use" style="endArrow=open;endSize=12;dashed=1;html=1;rounded=0;entryX=0;entryY=0.386;entryDx=0;entryDy=0;entryPerimeter=0;" parent="1" target="Y_N0G_v6Ph_r53Tg-Ugn-18" edge="1">
          <mxGeometry width="160" relative="1" as="geometry">
            <mxPoint x="300" y="400" as="sourcePoint" />
            <mxPoint x="460" y="400" as="targetPoint" />
          </mxGeometry>
        </mxCell>
        <mxCell id="Y_N0G_v6Ph_r53Tg-Ugn-20" value="Incluir Resultados de la Pruebas diagnostica" style="ellipse;whiteSpace=wrap;html=1;" parent="1" vertex="1">
          <mxGeometry x="650" y="540" width="140" height="70" as="geometry" />
        </mxCell>
        <mxCell id="Y_N0G_v6Ph_r53Tg-Ugn-21" value="Enviar Resultados" style="ellipse;whiteSpace=wrap;html=1;" parent="1" vertex="1">
          <mxGeometry x="590" y="660" width="140" height="70" as="geometry" />
        </mxCell>
        <mxCell id="Y_N0G_v6Ph_r53Tg-Ugn-22" value="" style="endArrow=open;endFill=1;endSize=12;html=1;rounded=0;" parent="1" source="Y_N0G_v6Ph_r53Tg-Ugn-32" edge="1">
          <mxGeometry width="160" relative="1" as="geometry">
            <mxPoint x="810" y="349" as="sourcePoint" />
            <mxPoint x="970" y="349" as="targetPoint" />
          </mxGeometry>
        </mxCell>
        <mxCell id="Y_N0G_v6Ph_r53Tg-Ugn-23" value="Use" style="endArrow=open;endSize=12;dashed=1;html=1;rounded=0;exitX=0.357;exitY=1;exitDx=0;exitDy=0;exitPerimeter=0;" parent="1" source="Y_N0G_v6Ph_r53Tg-Ugn-20" target="Y_N0G_v6Ph_r53Tg-Ugn-21" edge="1">
          <mxGeometry width="160" relative="1" as="geometry">
            <mxPoint x="760" y="540" as="sourcePoint" />
            <mxPoint x="920" y="540" as="targetPoint" />
          </mxGeometry>
        </mxCell>
        <mxCell id="Y_N0G_v6Ph_r53Tg-Ugn-24" value="" style="endArrow=open;endFill=1;endSize=12;html=1;rounded=0;exitX=1.007;exitY=0.386;exitDx=0;exitDy=0;exitPerimeter=0;" parent="1" source="Y_N0G_v6Ph_r53Tg-Ugn-20" edge="1">
          <mxGeometry width="160" relative="1" as="geometry">
            <mxPoint x="920" y="500" as="sourcePoint" />
            <mxPoint x="950" y="500" as="targetPoint" />
          </mxGeometry>
        </mxCell>
        <mxCell id="Y_N0G_v6Ph_r53Tg-Ugn-25" value="Generar Reporteria" style="ellipse;whiteSpace=wrap;html=1;" parent="1" vertex="1">
          <mxGeometry x="400" y="610" width="140" height="70" as="geometry" />
        </mxCell>
        <mxCell id="Y_N0G_v6Ph_r53Tg-Ugn-26" value="Use" style="endArrow=open;endSize=12;dashed=1;html=1;rounded=0;" parent="1" edge="1">
          <mxGeometry width="160" relative="1" as="geometry">
            <mxPoint x="260" y="410" as="sourcePoint" />
            <mxPoint x="390" y="620" as="targetPoint" />
          </mxGeometry>
        </mxCell>
        <mxCell id="Y_N0G_v6Ph_r53Tg-Ugn-27" value="Recibir Alertas" style="ellipse;whiteSpace=wrap;html=1;" parent="1" vertex="1">
          <mxGeometry x="410" y="110" width="140" height="70" as="geometry" />
        </mxCell>
        <mxCell id="Y_N0G_v6Ph_r53Tg-Ugn-28" value="Use" style="endArrow=open;endSize=12;dashed=1;html=1;rounded=0;entryX=0;entryY=0.5;entryDx=0;entryDy=0;" parent="1" target="Y_N0G_v6Ph_r53Tg-Ugn-27" edge="1">
          <mxGeometry width="160" relative="1" as="geometry">
            <mxPoint x="230" y="350" as="sourcePoint" />
            <mxPoint x="390" y="350" as="targetPoint" />
          </mxGeometry>
        </mxCell>
        <mxCell id="Y_N0G_v6Ph_r53Tg-Ugn-29" value="" style="endArrow=open;endFill=1;endSize=12;html=1;rounded=0;" parent="1" edge="1">
          <mxGeometry width="160" relative="1" as="geometry">
            <mxPoint x="560" y="130.00000000000023" as="sourcePoint" />
            <mxPoint x="960" y="150.00000000000023" as="targetPoint" />
          </mxGeometry>
        </mxCell>
        <mxCell id="Y_N0G_v6Ph_r53Tg-Ugn-30" value="Administrar Estatus" style="ellipse;whiteSpace=wrap;html=1;" parent="1" vertex="1">
          <mxGeometry x="420" y="20" width="140" height="70" as="geometry" />
        </mxCell>
        <mxCell id="Y_N0G_v6Ph_r53Tg-Ugn-31" value="Use" style="endArrow=open;endSize=12;dashed=1;html=1;rounded=0;entryX=0;entryY=0.5;entryDx=0;entryDy=0;" parent="1" target="Y_N0G_v6Ph_r53Tg-Ugn-30" edge="1">
          <mxGeometry width="160" relative="1" as="geometry">
            <mxPoint x="210.00000000000023" y="350" as="sourcePoint" />
            <mxPoint x="370" y="350" as="targetPoint" />
          </mxGeometry>
        </mxCell>
        <mxCell id="Y_N0G_v6Ph_r53Tg-Ugn-32" value="Validar Solicitud de Examen" style="ellipse;whiteSpace=wrap;html=1;" parent="1" vertex="1">
          <mxGeometry x="670" y="400" width="140" height="70" as="geometry" />
        </mxCell>
        <mxCell id="Y_N0G_v6Ph_r53Tg-Ugn-33" value="Use" style="endArrow=open;endSize=12;dashed=1;html=1;rounded=0;" parent="1" target="Y_N0G_v6Ph_r53Tg-Ugn-32" edge="1">
          <mxGeometry width="160" relative="1" as="geometry">
            <mxPoint x="540" y="330" as="sourcePoint" />
            <mxPoint x="700" y="330" as="targetPoint" />
          </mxGeometry>
        </mxCell>
        <mxCell id="Y_N0G_v6Ph_r53Tg-Ugn-34" value="Extends" style="endArrow=block;endSize=16;endFill=0;html=1;rounded=0;" parent="1" target="Y_N0G_v6Ph_r53Tg-Ugn-18" edge="1">
          <mxGeometry width="160" relative="1" as="geometry">
            <mxPoint x="680" y="450" as="sourcePoint" />
            <mxPoint x="840" y="450" as="targetPoint" />
          </mxGeometry>
        </mxCell>
        <mxCell id="Y_N0G_v6Ph_r53Tg-Ugn-35" value="Use" style="endArrow=open;endSize=12;dashed=1;html=1;rounded=0;" parent="1" target="Y_N0G_v6Ph_r53Tg-Ugn-20" edge="1">
          <mxGeometry width="160" relative="1" as="geometry">
            <mxPoint x="740" y="470" as="sourcePoint" />
            <mxPoint x="900" y="470" as="targetPoint" />
          </mxGeometry>
        </mxCell>
        <mxCell id="qYuvShQ5U35rnFKQQjsR-1" value="Responsable&lt;br&gt;Laboratorio" style="shape=umlActor;verticalLabelPosition=bottom;verticalAlign=top;html=1;" parent="1" vertex="1">
          <mxGeometry x="970" y="570" width="30" height="60" as="geometry" />
        </mxCell>
        <mxCell id="qYuvShQ5U35rnFKQQjsR-3" value="" style="endArrow=classic;html=1;rounded=0;exitX=0.979;exitY=0.643;exitDx=0;exitDy=0;exitPerimeter=0;" parent="1" source="Y_N0G_v6Ph_r53Tg-Ugn-20" target="qYuvShQ5U35rnFKQQjsR-1" edge="1">
          <mxGeometry width="50" height="50" relative="1" as="geometry">
            <mxPoint x="840" y="630" as="sourcePoint" />
            <mxPoint x="890" y="580" as="targetPoint" />
          </mxGeometry>
        </mxCell>
      </root>
    </mxGraphModel>
  </diagram>
  <diagram id="8X8CBEO5w-85Puu2k9rk" name="CU Doctor">
    <mxGraphModel dx="1422" dy="794" grid="1" gridSize="10" guides="1" tooltips="1" connect="1" arrows="1" fold="1" page="1" pageScale="1" pageWidth="827" pageHeight="1169" math="0" shadow="0">
      <root>
        <mxCell id="0" />
        <mxCell id="1" parent="0" />
        <mxCell id="kedHt14Q3Qfo6DuCU9vL-1" value="Doctor" style="shape=umlActor;verticalLabelPosition=bottom;verticalAlign=top;html=1;" parent="1" vertex="1">
          <mxGeometry x="100" y="180" width="30" height="60" as="geometry" />
        </mxCell>
        <mxCell id="kedHt14Q3Qfo6DuCU9vL-2" value="Crear Solicitud de Examen" style="ellipse;whiteSpace=wrap;html=1;" parent="1" vertex="1">
          <mxGeometry x="220" y="175" width="140" height="70" as="geometry" />
        </mxCell>
        <mxCell id="kedHt14Q3Qfo6DuCU9vL-3" value="" style="endArrow=open;endFill=1;endSize=12;html=1;rounded=0;" parent="1" edge="1">
          <mxGeometry width="160" relative="1" as="geometry">
            <mxPoint x="129.99999999999977" y="209.9999999999999" as="sourcePoint" />
            <mxPoint x="219.99999999999977" y="209.9999999999999" as="targetPoint" />
          </mxGeometry>
        </mxCell>
        <mxCell id="kedHt14Q3Qfo6DuCU9vL-4" value="Buscar Número de Expediente" style="ellipse;whiteSpace=wrap;html=1;" parent="1" vertex="1">
          <mxGeometry x="400" y="70" width="140" height="70" as="geometry" />
        </mxCell>
        <mxCell id="kedHt14Q3Qfo6DuCU9vL-5" value="Use" style="endArrow=open;endSize=12;dashed=1;html=1;rounded=0;entryX=0;entryY=0.714;entryDx=0;entryDy=0;entryPerimeter=0;" parent="1" target="kedHt14Q3Qfo6DuCU9vL-4" edge="1">
          <mxGeometry width="160" relative="1" as="geometry">
            <mxPoint x="319.9999999999998" y="179.9999999999999" as="sourcePoint" />
            <mxPoint x="480" y="180" as="targetPoint" />
          </mxGeometry>
        </mxCell>
        <mxCell id="kedHt14Q3Qfo6DuCU9vL-6" value="Modificar Solicitud" style="ellipse;whiteSpace=wrap;html=1;" parent="1" vertex="1">
          <mxGeometry x="150" y="320" width="140" height="70" as="geometry" />
        </mxCell>
        <mxCell id="kedHt14Q3Qfo6DuCU9vL-7" value="Anular Solicitud" style="ellipse;whiteSpace=wrap;html=1;" parent="1" vertex="1">
          <mxGeometry x="320" y="320" width="140" height="70" as="geometry" />
        </mxCell>
        <mxCell id="kedHt14Q3Qfo6DuCU9vL-8" value="Extends" style="endArrow=block;endSize=16;endFill=0;html=1;rounded=0;entryX=0.229;entryY=0.943;entryDx=0;entryDy=0;entryPerimeter=0;" parent="1" target="kedHt14Q3Qfo6DuCU9vL-2" edge="1">
          <mxGeometry width="160" relative="1" as="geometry">
            <mxPoint x="209.99999999999977" y="319.9999999999999" as="sourcePoint" />
            <mxPoint x="370" y="320" as="targetPoint" />
          </mxGeometry>
        </mxCell>
        <mxCell id="kedHt14Q3Qfo6DuCU9vL-9" value="Extends" style="endArrow=block;endSize=16;endFill=0;html=1;rounded=0;entryX=1;entryY=1;entryDx=0;entryDy=0;" parent="1" target="kedHt14Q3Qfo6DuCU9vL-2" edge="1">
          <mxGeometry width="160" relative="1" as="geometry">
            <mxPoint x="379.9999999999998" y="319.9999999999999" as="sourcePoint" />
            <mxPoint x="540" y="320" as="targetPoint" />
          </mxGeometry>
        </mxCell>
        <mxCell id="kedHt14Q3Qfo6DuCU9vL-10" value="Use" style="endArrow=open;endSize=12;dashed=1;html=1;rounded=0;entryX=0;entryY=0.5;entryDx=0;entryDy=0;" parent="1" edge="1">
          <mxGeometry width="160" relative="1" as="geometry">
            <mxPoint x="540" y="99.99999999999989" as="sourcePoint" />
            <mxPoint x="630" y="94.99999999999989" as="targetPoint" />
          </mxGeometry>
        </mxCell>
        <mxCell id="kedHt14Q3Qfo6DuCU9vL-11" value="Recepcionador&lt;br&gt;Lab/Imagen" style="shape=umlActor;verticalLabelPosition=bottom;verticalAlign=top;html=1;" parent="1" vertex="1">
          <mxGeometry x="660" y="340" width="30" height="60" as="geometry" />
        </mxCell>
        <mxCell id="kedHt14Q3Qfo6DuCU9vL-12" value="Enviar Solicitud de Examen" style="ellipse;whiteSpace=wrap;html=1;" parent="1" vertex="1">
          <mxGeometry x="580" y="190" width="140" height="70" as="geometry" />
        </mxCell>
        <mxCell id="kedHt14Q3Qfo6DuCU9vL-13" value="" style="endArrow=open;endFill=1;endSize=12;html=1;rounded=0;exitX=0.457;exitY=1;exitDx=0;exitDy=0;exitPerimeter=0;" parent="1" source="kedHt14Q3Qfo6DuCU9vL-12" target="kedHt14Q3Qfo6DuCU9vL-11" edge="1">
          <mxGeometry width="160" relative="1" as="geometry">
            <mxPoint x="680" y="300" as="sourcePoint" />
            <mxPoint x="840" y="300" as="targetPoint" />
          </mxGeometry>
        </mxCell>
        <mxCell id="kedHt14Q3Qfo6DuCU9vL-14" value="Llenar campos obligatorios del formulario" style="ellipse;whiteSpace=wrap;html=1;" parent="1" vertex="1">
          <mxGeometry x="630" y="60" width="140" height="70" as="geometry" />
        </mxCell>
        <mxCell id="kedHt14Q3Qfo6DuCU9vL-15" value="Use" style="endArrow=open;endSize=12;dashed=1;html=1;rounded=0;exitX=0.5;exitY=1;exitDx=0;exitDy=0;" parent="1" source="kedHt14Q3Qfo6DuCU9vL-14" target="kedHt14Q3Qfo6DuCU9vL-12" edge="1">
          <mxGeometry width="160" relative="1" as="geometry">
            <mxPoint x="690" y="250" as="sourcePoint" />
            <mxPoint x="850" y="250" as="targetPoint" />
          </mxGeometry>
        </mxCell>
        <mxCell id="kedHt14Q3Qfo6DuCU9vL-16" value="Notificar a Lab/Imagen" style="ellipse;whiteSpace=wrap;html=1;" parent="1" vertex="1">
          <mxGeometry x="800" y="190" width="140" height="70" as="geometry" />
        </mxCell>
        <mxCell id="kedHt14Q3Qfo6DuCU9vL-17" value="Use" style="endArrow=open;endSize=12;dashed=1;html=1;rounded=0;" parent="1" edge="1">
          <mxGeometry width="160" relative="1" as="geometry">
            <mxPoint x="720" y="219.9999999999999" as="sourcePoint" />
            <mxPoint x="790" y="219.9999999999999" as="targetPoint" />
          </mxGeometry>
        </mxCell>
        <mxCell id="kedHt14Q3Qfo6DuCU9vL-18" value="" style="endArrow=open;endFill=1;endSize=12;html=1;rounded=0;" parent="1" source="kedHt14Q3Qfo6DuCU9vL-16" target="kedHt14Q3Qfo6DuCU9vL-11" edge="1">
          <mxGeometry width="160" relative="1" as="geometry">
            <mxPoint x="800" y="260" as="sourcePoint" />
            <mxPoint x="710" y="350" as="targetPoint" />
          </mxGeometry>
        </mxCell>
      </root>
    </mxGraphModel>
  </diagram>
  <diagram id="y7euQQwlz-qXmmzgw8ko" name="CU Recepcionista">
    <mxGraphModel dx="1422" dy="794" grid="1" gridSize="10" guides="1" tooltips="1" connect="1" arrows="1" fold="1" page="1" pageScale="1" pageWidth="827" pageHeight="1169" math="0" shadow="0">
      <root>
        <mxCell id="0" />
        <mxCell id="1" parent="0" />
        <mxCell id="nM5QqYpvnfmfJMVNxB4x-1" value="Recepción&lt;br&gt;Lab/Imagen" style="shape=umlActor;verticalLabelPosition=bottom;verticalAlign=top;html=1;" parent="1" vertex="1">
          <mxGeometry x="100" y="420" width="30" height="60" as="geometry" />
        </mxCell>
        <mxCell id="nM5QqYpvnfmfJMVNxB4x-2" value="Revisar Buzón" style="ellipse;whiteSpace=wrap;html=1;" parent="1" vertex="1">
          <mxGeometry x="170" y="320" width="140" height="70" as="geometry" />
        </mxCell>
        <mxCell id="nM5QqYpvnfmfJMVNxB4x-3" value="" style="endArrow=open;endFill=1;endSize=12;html=1;rounded=0;exitX=0.5;exitY=0.5;exitDx=0;exitDy=0;exitPerimeter=0;" parent="1" source="nM5QqYpvnfmfJMVNxB4x-1" target="nM5QqYpvnfmfJMVNxB4x-2" edge="1">
          <mxGeometry width="160" relative="1" as="geometry">
            <mxPoint x="330" y="560" as="sourcePoint" />
            <mxPoint x="490" y="560" as="targetPoint" />
          </mxGeometry>
        </mxCell>
        <mxCell id="nM5QqYpvnfmfJMVNxB4x-4" value="Especialista" style="shape=umlActor;verticalLabelPosition=bottom;verticalAlign=top;html=1;" parent="1" vertex="1">
          <mxGeometry x="740" y="450" width="30" height="60" as="geometry" />
        </mxCell>
        <mxCell id="nM5QqYpvnfmfJMVNxB4x-5" value="Validar solicitud" style="ellipse;whiteSpace=wrap;html=1;" parent="1" vertex="1">
          <mxGeometry x="380" y="320" width="140" height="70" as="geometry" />
        </mxCell>
        <mxCell id="nM5QqYpvnfmfJMVNxB4x-6" value="Use" style="endArrow=open;endSize=12;dashed=1;html=1;rounded=0;" parent="1" source="nM5QqYpvnfmfJMVNxB4x-2" target="nM5QqYpvnfmfJMVNxB4x-5" edge="1">
          <mxGeometry width="160" relative="1" as="geometry">
            <mxPoint x="320" y="420" as="sourcePoint" />
            <mxPoint x="480" y="420" as="targetPoint" />
            <Array as="points" />
          </mxGeometry>
        </mxCell>
        <mxCell id="nM5QqYpvnfmfJMVNxB4x-7" value="Doctor" style="shape=umlActor;verticalLabelPosition=bottom;verticalAlign=top;html=1;" parent="1" vertex="1">
          <mxGeometry x="90" y="220" width="30" height="60" as="geometry" />
        </mxCell>
        <mxCell id="nM5QqYpvnfmfJMVNxB4x-8" value="Devolver solicitud" style="ellipse;whiteSpace=wrap;html=1;" parent="1" vertex="1">
          <mxGeometry x="240" y="210" width="140" height="70" as="geometry" />
        </mxCell>
        <mxCell id="nM5QqYpvnfmfJMVNxB4x-9" value="Extends" style="endArrow=block;endSize=16;endFill=0;html=1;rounded=0;exitX=0.386;exitY=-0.043;exitDx=0;exitDy=0;exitPerimeter=0;" parent="1" source="nM5QqYpvnfmfJMVNxB4x-5" target="nM5QqYpvnfmfJMVNxB4x-8" edge="1">
          <mxGeometry width="160" relative="1" as="geometry">
            <mxPoint x="330" y="390" as="sourcePoint" />
            <mxPoint x="490" y="390" as="targetPoint" />
          </mxGeometry>
        </mxCell>
        <mxCell id="nM5QqYpvnfmfJMVNxB4x-10" value="" style="endArrow=open;endFill=1;endSize=12;html=1;rounded=0;" parent="1" source="nM5QqYpvnfmfJMVNxB4x-8" target="nM5QqYpvnfmfJMVNxB4x-7" edge="1">
          <mxGeometry width="160" relative="1" as="geometry">
            <mxPoint x="160" y="259.5" as="sourcePoint" />
            <mxPoint x="140" y="280" as="targetPoint" />
            <Array as="points" />
          </mxGeometry>
        </mxCell>
        <mxCell id="nM5QqYpvnfmfJMVNxB4x-11" value="Enviar asignación" style="ellipse;whiteSpace=wrap;html=1;" parent="1" vertex="1">
          <mxGeometry x="470" y="440" width="140" height="70" as="geometry" />
        </mxCell>
        <mxCell id="nM5QqYpvnfmfJMVNxB4x-12" value="Use" style="endArrow=open;endSize=12;dashed=1;html=1;rounded=0;entryX=0.557;entryY=0;entryDx=0;entryDy=0;entryPerimeter=0;" parent="1" source="nM5QqYpvnfmfJMVNxB4x-5" target="nM5QqYpvnfmfJMVNxB4x-11" edge="1">
          <mxGeometry width="160" relative="1" as="geometry">
            <mxPoint x="330" y="390" as="sourcePoint" />
            <mxPoint x="490" y="390" as="targetPoint" />
          </mxGeometry>
        </mxCell>
        <mxCell id="nM5QqYpvnfmfJMVNxB4x-13" value="Use" style="endArrow=open;endSize=12;dashed=1;html=1;rounded=0;" parent="1" source="nM5QqYpvnfmfJMVNxB4x-11" target="nM5QqYpvnfmfJMVNxB4x-14" edge="1">
          <mxGeometry width="160" relative="1" as="geometry">
            <mxPoint x="160" y="540" as="sourcePoint" />
            <mxPoint x="320" y="540" as="targetPoint" />
          </mxGeometry>
        </mxCell>
        <mxCell id="nM5QqYpvnfmfJMVNxB4x-14" value="Notificar al especialista" style="ellipse;whiteSpace=wrap;html=1;" parent="1" vertex="1">
          <mxGeometry x="630" y="320" width="140" height="70" as="geometry" />
        </mxCell>
        <mxCell id="nM5QqYpvnfmfJMVNxB4x-15" value="" style="endArrow=open;endFill=1;endSize=12;html=1;rounded=0;" parent="1" source="nM5QqYpvnfmfJMVNxB4x-14" target="nM5QqYpvnfmfJMVNxB4x-4" edge="1">
          <mxGeometry width="160" relative="1" as="geometry">
            <mxPoint x="580" y="510" as="sourcePoint" />
            <mxPoint x="740" y="510" as="targetPoint" />
          </mxGeometry>
        </mxCell>
        <mxCell id="nM5QqYpvnfmfJMVNxB4x-16" value="" style="endArrow=open;endFill=1;endSize=12;html=1;rounded=0;" parent="1" source="nM5QqYpvnfmfJMVNxB4x-11" target="nM5QqYpvnfmfJMVNxB4x-4" edge="1">
          <mxGeometry width="160" relative="1" as="geometry">
            <mxPoint x="580" y="530" as="sourcePoint" />
            <mxPoint x="740" y="530" as="targetPoint" />
          </mxGeometry>
        </mxCell>
      </root>
    </mxGraphModel>
  </diagram>
  <diagram id="CIeUp-nwon2Y52BRD2Yd" name="CU Especialista">
    <mxGraphModel dx="1422" dy="794" grid="1" gridSize="10" guides="1" tooltips="1" connect="1" arrows="1" fold="1" page="1" pageScale="1" pageWidth="827" pageHeight="1169" math="0" shadow="0">
      <root>
        <mxCell id="0" />
        <mxCell id="1" parent="0" />
        <mxCell id="RO3wH7HsHAThEsxkB40p-1" value="Especialista" style="shape=umlActor;verticalLabelPosition=bottom;verticalAlign=top;html=1;" parent="1" vertex="1">
          <mxGeometry x="60" y="300" width="30" height="60" as="geometry" />
        </mxCell>
        <mxCell id="RO3wH7HsHAThEsxkB40p-2" value="Analizar prueba diagnostica&amp;nbsp;" style="ellipse;whiteSpace=wrap;html=1;" parent="1" vertex="1">
          <mxGeometry x="170" y="220" width="140" height="70" as="geometry" />
        </mxCell>
        <mxCell id="RO3wH7HsHAThEsxkB40p-3" value="" style="endArrow=open;endFill=1;endSize=12;html=1;rounded=0;" parent="1" source="RO3wH7HsHAThEsxkB40p-1" target="RO3wH7HsHAThEsxkB40p-2" edge="1">
          <mxGeometry width="160" relative="1" as="geometry">
            <mxPoint x="330" y="360" as="sourcePoint" />
            <mxPoint x="490" y="360" as="targetPoint" />
          </mxGeometry>
        </mxCell>
        <mxCell id="RO3wH7HsHAThEsxkB40p-4" value="Incluir resultados de pruebas diagnosticas" style="ellipse;whiteSpace=wrap;html=1;" parent="1" vertex="1">
          <mxGeometry x="414" y="220" width="140" height="70" as="geometry" />
        </mxCell>
        <mxCell id="RO3wH7HsHAThEsxkB40p-5" value="" style="endArrow=open;endFill=1;endSize=12;html=1;rounded=0;" parent="1" source="RO3wH7HsHAThEsxkB40p-2" target="RO3wH7HsHAThEsxkB40p-4" edge="1">
          <mxGeometry width="160" relative="1" as="geometry">
            <mxPoint x="330" y="350" as="sourcePoint" />
            <mxPoint x="490" y="350" as="targetPoint" />
          </mxGeometry>
        </mxCell>
        <mxCell id="RO3wH7HsHAThEsxkB40p-6" value="Doctor" style="shape=umlActor;verticalLabelPosition=bottom;verticalAlign=top;html=1;" parent="1" vertex="1">
          <mxGeometry x="730" y="360" width="30" height="60" as="geometry" />
        </mxCell>
        <mxCell id="RO3wH7HsHAThEsxkB40p-7" value="Enviar resultados" style="ellipse;whiteSpace=wrap;html=1;" parent="1" vertex="1">
          <mxGeometry x="400" y="380" width="140" height="70" as="geometry" />
        </mxCell>
        <mxCell id="RO3wH7HsHAThEsxkB40p-8" value="Notificación de resultados de pruebas" style="ellipse;whiteSpace=wrap;html=1;" parent="1" vertex="1">
          <mxGeometry x="600" y="240" width="140" height="70" as="geometry" />
        </mxCell>
        <mxCell id="RO3wH7HsHAThEsxkB40p-9" value="Use" style="endArrow=open;endSize=12;dashed=1;html=1;rounded=0;" parent="1" source="RO3wH7HsHAThEsxkB40p-7" target="RO3wH7HsHAThEsxkB40p-8" edge="1">
          <mxGeometry width="160" relative="1" as="geometry">
            <mxPoint x="510" y="370" as="sourcePoint" />
            <mxPoint x="670" y="370" as="targetPoint" />
          </mxGeometry>
        </mxCell>
        <mxCell id="RO3wH7HsHAThEsxkB40p-10" value="" style="endArrow=open;endFill=1;endSize=12;html=1;rounded=0;" parent="1" source="RO3wH7HsHAThEsxkB40p-8" target="RO3wH7HsHAThEsxkB40p-6" edge="1">
          <mxGeometry width="160" relative="1" as="geometry">
            <mxPoint x="330" y="340" as="sourcePoint" />
            <mxPoint x="490" y="340" as="targetPoint" />
          </mxGeometry>
        </mxCell>
        <mxCell id="RO3wH7HsHAThEsxkB40p-11" value="" style="endArrow=open;endFill=1;endSize=12;html=1;rounded=0;entryX=0.367;entryY=0.8;entryDx=0;entryDy=0;entryPerimeter=0;" parent="1" source="RO3wH7HsHAThEsxkB40p-7" target="RO3wH7HsHAThEsxkB40p-6" edge="1">
          <mxGeometry width="160" relative="1" as="geometry">
            <mxPoint x="330" y="340" as="sourcePoint" />
            <mxPoint x="490" y="340" as="targetPoint" />
          </mxGeometry>
        </mxCell>
        <mxCell id="RO3wH7HsHAThEsxkB40p-12" value="Use" style="endArrow=open;endSize=12;dashed=1;html=1;rounded=0;" parent="1" source="RO3wH7HsHAThEsxkB40p-4" target="RO3wH7HsHAThEsxkB40p-7" edge="1">
          <mxGeometry width="160" relative="1" as="geometry">
            <mxPoint x="330" y="340" as="sourcePoint" />
            <mxPoint x="490" y="340" as="targetPoint" />
          </mxGeometry>
        </mxCell>
      </root>
    </mxGraphModel>
  </diagram>
  <diagram id="3Hbfpk2Bz9Cy2beqP0y2" name="CU Reporteria">
    <mxGraphModel dx="1422" dy="794" grid="1" gridSize="10" guides="1" tooltips="1" connect="1" arrows="1" fold="1" page="1" pageScale="1" pageWidth="827" pageHeight="1169" math="0" shadow="0">
      <root>
        <mxCell id="0" />
        <mxCell id="1" parent="0" />
        <mxCell id="zb_SBpLyRqkdX5HVqy6g-1" value="Doctor" style="shape=umlActor;verticalLabelPosition=bottom;verticalAlign=top;html=1;" parent="1" vertex="1">
          <mxGeometry x="60" y="130" width="30" height="60" as="geometry" />
        </mxCell>
        <mxCell id="zb_SBpLyRqkdX5HVqy6g-2" value="Recepcionista&lt;br&gt;Lab/Imagen" style="shape=umlActor;verticalLabelPosition=bottom;verticalAlign=top;html=1;" parent="1" vertex="1">
          <mxGeometry x="60" y="240" width="30" height="60" as="geometry" />
        </mxCell>
        <mxCell id="zb_SBpLyRqkdX5HVqy6g-3" value="Especialista" style="shape=umlActor;verticalLabelPosition=bottom;verticalAlign=top;html=1;" parent="1" vertex="1">
          <mxGeometry x="50" y="360" width="30" height="60" as="geometry" />
        </mxCell>
        <mxCell id="zb_SBpLyRqkdX5HVqy6g-4" value="Administración de Reportes" style="ellipse;whiteSpace=wrap;html=1;" parent="1" vertex="1">
          <mxGeometry x="530" y="160" width="140" height="70" as="geometry" />
        </mxCell>
        <mxCell id="zb_SBpLyRqkdX5HVqy6g-5" value="Visualizar Reportes" style="ellipse;whiteSpace=wrap;html=1;" parent="1" vertex="1">
          <mxGeometry x="310" y="260" width="140" height="70" as="geometry" />
        </mxCell>
        <mxCell id="zb_SBpLyRqkdX5HVqy6g-6" value="Extends" style="endArrow=block;endSize=16;endFill=0;html=1;rounded=0;" parent="1" source="zb_SBpLyRqkdX5HVqy6g-4" target="zb_SBpLyRqkdX5HVqy6g-5" edge="1">
          <mxGeometry width="160" relative="1" as="geometry">
            <mxPoint x="330" y="360" as="sourcePoint" />
            <mxPoint x="490" y="360" as="targetPoint" />
          </mxGeometry>
        </mxCell>
        <mxCell id="zb_SBpLyRqkdX5HVqy6g-7" value="Sistemas" style="shape=umlActor;verticalLabelPosition=bottom;verticalAlign=top;html=1;" parent="1" vertex="1">
          <mxGeometry x="650" y="300" width="30" height="60" as="geometry" />
        </mxCell>
        <mxCell id="zb_SBpLyRqkdX5HVqy6g-8" value="" style="endArrow=open;endFill=1;endSize=12;html=1;rounded=0;" parent="1" source="zb_SBpLyRqkdX5HVqy6g-7" target="zb_SBpLyRqkdX5HVqy6g-4" edge="1">
          <mxGeometry width="160" relative="1" as="geometry">
            <mxPoint x="330" y="360" as="sourcePoint" />
            <mxPoint x="490" y="360" as="targetPoint" />
          </mxGeometry>
        </mxCell>
        <mxCell id="zb_SBpLyRqkdX5HVqy6g-9" value="" style="endArrow=open;endFill=1;endSize=12;html=1;rounded=0;entryX=0.667;entryY=0.733;entryDx=0;entryDy=0;entryPerimeter=0;" parent="1" source="zb_SBpLyRqkdX5HVqy6g-5" target="zb_SBpLyRqkdX5HVqy6g-3" edge="1">
          <mxGeometry width="160" relative="1" as="geometry">
            <mxPoint x="330" y="360" as="sourcePoint" />
            <mxPoint x="490" y="360" as="targetPoint" />
          </mxGeometry>
        </mxCell>
        <mxCell id="zb_SBpLyRqkdX5HVqy6g-10" value="" style="endArrow=open;endFill=1;endSize=12;html=1;rounded=0;" parent="1" source="zb_SBpLyRqkdX5HVqy6g-5" target="zb_SBpLyRqkdX5HVqy6g-2" edge="1">
          <mxGeometry width="160" relative="1" as="geometry">
            <mxPoint x="330" y="360" as="sourcePoint" />
            <mxPoint x="490" y="360" as="targetPoint" />
          </mxGeometry>
        </mxCell>
        <mxCell id="zb_SBpLyRqkdX5HVqy6g-11" value="" style="endArrow=open;endFill=1;endSize=12;html=1;rounded=0;entryX=0.6;entryY=0.8;entryDx=0;entryDy=0;entryPerimeter=0;" parent="1" source="zb_SBpLyRqkdX5HVqy6g-5" target="zb_SBpLyRqkdX5HVqy6g-1" edge="1">
          <mxGeometry width="160" relative="1" as="geometry">
            <mxPoint x="330" y="360" as="sourcePoint" />
            <mxPoint x="490" y="360" as="targetPoint" />
          </mxGeometry>
        </mxCell>
      </root>
    </mxGraphModel>
  </diagram>
  <diagram id="ZCxOlbxd5ltpnom33ool" name="CU Estados">
    <mxGraphModel dx="1422" dy="794" grid="1" gridSize="10" guides="1" tooltips="1" connect="1" arrows="1" fold="1" page="1" pageScale="1" pageWidth="827" pageHeight="1169" math="0" shadow="0">
      <root>
        <mxCell id="0" />
        <mxCell id="1" parent="0" />
        <mxCell id="YdGdUYXqBwh7QTgP1-vf-1" value="Administrador del Sistema" style="shape=umlActor;verticalLabelPosition=bottom;verticalAlign=top;html=1;" parent="1" vertex="1">
          <mxGeometry x="100" y="210" width="30" height="60" as="geometry" />
        </mxCell>
        <mxCell id="YdGdUYXqBwh7QTgP1-vf-2" value="Administrar Estatus&amp;nbsp;" style="ellipse;whiteSpace=wrap;html=1;" parent="1" vertex="1">
          <mxGeometry x="240" y="200" width="140" height="70" as="geometry" />
        </mxCell>
        <mxCell id="YdGdUYXqBwh7QTgP1-vf-3" value="Consultar Perfil" style="ellipse;whiteSpace=wrap;html=1;" parent="1" vertex="1">
          <mxGeometry x="470" y="80" width="140" height="70" as="geometry" />
        </mxCell>
        <mxCell id="YdGdUYXqBwh7QTgP1-vf-4" value="Vincular Rol a Estatus" style="ellipse;whiteSpace=wrap;html=1;" parent="1" vertex="1">
          <mxGeometry x="740" y="80" width="140" height="70" as="geometry" />
        </mxCell>
        <mxCell id="YdGdUYXqBwh7QTgP1-vf-5" value="Use" style="endArrow=open;endSize=12;dashed=1;html=1;rounded=0;" parent="1" source="YdGdUYXqBwh7QTgP1-vf-2" target="YdGdUYXqBwh7QTgP1-vf-3" edge="1">
          <mxGeometry width="160" relative="1" as="geometry">
            <mxPoint x="420" y="230" as="sourcePoint" />
            <mxPoint x="490" y="230" as="targetPoint" />
          </mxGeometry>
        </mxCell>
        <mxCell id="YdGdUYXqBwh7QTgP1-vf-6" value="Use" style="endArrow=open;endSize=12;dashed=1;html=1;rounded=0;" parent="1" source="YdGdUYXqBwh7QTgP1-vf-3" target="YdGdUYXqBwh7QTgP1-vf-4" edge="1">
          <mxGeometry width="160" relative="1" as="geometry">
            <mxPoint x="330" y="390" as="sourcePoint" />
            <mxPoint x="490" y="390" as="targetPoint" />
          </mxGeometry>
        </mxCell>
        <mxCell id="YdGdUYXqBwh7QTgP1-vf-7" value="" style="endArrow=open;endFill=1;endSize=12;html=1;rounded=0;entryX=0;entryY=0.5;entryDx=0;entryDy=0;" parent="1" source="YdGdUYXqBwh7QTgP1-vf-1" target="YdGdUYXqBwh7QTgP1-vf-2" edge="1">
          <mxGeometry width="160" relative="1" as="geometry">
            <mxPoint x="140" y="230" as="sourcePoint" />
            <mxPoint x="300" y="230" as="targetPoint" />
          </mxGeometry>
        </mxCell>
        <mxCell id="YdGdUYXqBwh7QTgP1-vf-8" value="Agregar Estatus" style="ellipse;whiteSpace=wrap;html=1;" parent="1" vertex="1">
          <mxGeometry x="480" y="205" width="140" height="70" as="geometry" />
        </mxCell>
        <mxCell id="YdGdUYXqBwh7QTgP1-vf-9" style="edgeStyle=orthogonalEdgeStyle;rounded=0;orthogonalLoop=1;jettySize=auto;html=1;exitX=0.5;exitY=1;exitDx=0;exitDy=0;" parent="1" source="YdGdUYXqBwh7QTgP1-vf-4" target="YdGdUYXqBwh7QTgP1-vf-4" edge="1">
          <mxGeometry relative="1" as="geometry" />
        </mxCell>
        <mxCell id="YdGdUYXqBwh7QTgP1-vf-10" value="Agregar Roles" style="ellipse;whiteSpace=wrap;html=1;" parent="1" vertex="1">
          <mxGeometry x="460" y="350" width="140" height="70" as="geometry" />
        </mxCell>
        <mxCell id="YdGdUYXqBwh7QTgP1-vf-11" value="Use" style="endArrow=open;endSize=12;dashed=1;html=1;rounded=0;entryX=-0.007;entryY=0.4;entryDx=0;entryDy=0;entryPerimeter=0;" parent="1" source="YdGdUYXqBwh7QTgP1-vf-2" target="YdGdUYXqBwh7QTgP1-vf-8" edge="1">
          <mxGeometry width="160" relative="1" as="geometry">
            <mxPoint x="380" y="240" as="sourcePoint" />
            <mxPoint x="540" y="240" as="targetPoint" />
          </mxGeometry>
        </mxCell>
        <mxCell id="YdGdUYXqBwh7QTgP1-vf-12" value="Use" style="endArrow=open;endSize=12;dashed=1;html=1;rounded=0;" parent="1" target="YdGdUYXqBwh7QTgP1-vf-10" edge="1">
          <mxGeometry width="160" relative="1" as="geometry">
            <mxPoint x="340" y="260" as="sourcePoint" />
            <mxPoint x="500" y="260" as="targetPoint" />
          </mxGeometry>
        </mxCell>
        <mxCell id="YdGdUYXqBwh7QTgP1-vf-13" value="Eliminar Estatus" style="ellipse;whiteSpace=wrap;html=1;" parent="1" vertex="1">
          <mxGeometry x="730" y="170" width="140" height="70" as="geometry" />
        </mxCell>
        <mxCell id="YdGdUYXqBwh7QTgP1-vf-14" value="Modificar Estatus" style="ellipse;whiteSpace=wrap;html=1;" parent="1" vertex="1">
          <mxGeometry x="730" y="250" width="140" height="70" as="geometry" />
        </mxCell>
        <mxCell id="YdGdUYXqBwh7QTgP1-vf-15" value="Extends" style="endArrow=block;endSize=16;endFill=0;html=1;rounded=0;exitX=0;exitY=0.5;exitDx=0;exitDy=0;entryX=0.971;entryY=0.286;entryDx=0;entryDy=0;entryPerimeter=0;" parent="1" source="YdGdUYXqBwh7QTgP1-vf-13" target="YdGdUYXqBwh7QTgP1-vf-8" edge="1">
          <mxGeometry width="160" relative="1" as="geometry">
            <mxPoint x="330" y="380" as="sourcePoint" />
            <mxPoint x="490" y="380" as="targetPoint" />
          </mxGeometry>
        </mxCell>
        <mxCell id="YdGdUYXqBwh7QTgP1-vf-16" value="Extends" style="endArrow=block;endSize=16;endFill=0;html=1;rounded=0;exitX=0;exitY=0.5;exitDx=0;exitDy=0;entryX=1.014;entryY=0.614;entryDx=0;entryDy=0;entryPerimeter=0;" parent="1" source="YdGdUYXqBwh7QTgP1-vf-14" target="YdGdUYXqBwh7QTgP1-vf-8" edge="1">
          <mxGeometry width="160" relative="1" as="geometry">
            <mxPoint x="330" y="380" as="sourcePoint" />
            <mxPoint x="490" y="380" as="targetPoint" />
          </mxGeometry>
        </mxCell>
        <mxCell id="YdGdUYXqBwh7QTgP1-vf-17" value="Eliminar Rol" style="ellipse;whiteSpace=wrap;html=1;" parent="1" vertex="1">
          <mxGeometry x="720" y="340" width="140" height="70" as="geometry" />
        </mxCell>
        <mxCell id="YdGdUYXqBwh7QTgP1-vf-18" value="Extends" style="endArrow=block;endSize=16;endFill=0;html=1;rounded=0;entryX=1;entryY=0.5;entryDx=0;entryDy=0;exitX=0;exitY=0.5;exitDx=0;exitDy=0;" parent="1" source="YdGdUYXqBwh7QTgP1-vf-17" target="YdGdUYXqBwh7QTgP1-vf-10" edge="1">
          <mxGeometry width="160" relative="1" as="geometry">
            <mxPoint x="680" y="370" as="sourcePoint" />
            <mxPoint x="840" y="370" as="targetPoint" />
          </mxGeometry>
        </mxCell>
      </root>
    </mxGraphModel>
  </diagram>
</mxfile>
